<svg xmlns="http://www.w3.org/2000/svg" width="210.972" height="99.465" viewBox="0 0 210.972 99.465"><defs><style>.a{fill:#fffbdb;}.b{fill:#fff7b2;}.c{fill:#fff381;}.d{fill:#fff;}.e{fill:#1f358b;}.f{fill:#009ee3;}</style></defs><path class="a" d="M122.018,89.518a20.227,20.227,0,0,0-13.337-13.709c-6.908-2.164-18.263-.166-21.842,7.49,5.53-5.77,12.237-7.328,20.01-4.883a14.628,14.628,0,0,1,4.081,2.122q-.47-.172-.947-.324a21.928,21.928,0,1,0,12.034,9.3Z" transform="translate(-59.617 -54.845)"/><path class="b" d="M62,51.525A30.27,30.27,0,0,0,35.923,85.567c1.684,13.239,10.864,21.145,23.265,23.661C48.757,106.071,40.778,98.02,39.263,86.518,37,69.311,48.538,54.874,64.786,52.8a26.876,26.876,0,0,1,9.372.208c-3.2-1.542-6.186-2.2-12.16-1.483Z" transform="translate(-26.086 -37.471)"/><path class="c" d="M34.815,100.125C13.657,92.759.792,70.728,7.53,50.076c4.9-15.036,18.356-24.277,33.827-25.8C23.787,24.059,7.6,34.189,1.979,51.42c-6.963,21.343,5.033,43.952,26.765,51.417,9.607,3.3,24.753.943,31.825-2.122-7.839,2-16.976,2.466-25.754-.59Z" transform="translate(0 -17.752)"/><path class="c" d="M127.02,83.605c6.246,6.095,6.967,17.629,6.967,21.611,0,18.18-18.048,32.635-36.382,32.635a36.7,36.7,0,0,1-23.421-8.109c4.634,6.2,13.6,11.232,26.946,11.232,17.578,0,36.46-14.3,36.46-32.4,0-8.4-2.311-18.724-10.572-24.97Z" transform="translate(-54.257 -61.146)"/><path class="a" d="M79.188,152.848A21.13,21.13,0,0,1,65.162,126.18a14.093,14.093,0,0,1,2.122-4.711,11.7,11.7,0,0,0-4.388,6.69c-3.571,11.4,3.705,24.244,14.077,27.411a21.6,21.6,0,0,0,24.15-8.423A21.468,21.468,0,0,1,79.188,152.848Z" transform="translate(-45.327 -88.839)"/><path class="b" d="M166.692,63.586c-.734-.035-1.461-.028-2.182,0,12.852,1.929,22.277,14.241,21.767,27.21a25.728,25.728,0,0,1-27.612,25.01c18.2,5.068,31.636-9.7,32.33-24.4S180.807,64.253,166.692,63.586Z" transform="translate(-116.043 -46.488)"/><path class="d" d="M118.218,119.395c3.463-11.059-2.078-22.638-12.377-25.864s-21.455,3.125-24.919,14.184S83,130.354,93.3,133.581,114.755,130.455,118.218,119.395Z" transform="translate(-58.429 -67.792)"/><path class="c" d="M57.323,0a46.681,46.681,0,0,0-14.47,2.29,47.455,47.455,0,0,1,51,20.868c14.133,22.114,8.027,51.266-13.638,65.111S29.53,95.41,15.4,73.3A48.759,48.759,0,0,1,12.9,68.9c7.264,17.948,24.415,30.562,44.42,30.562,26.582,0,48.132-22.267,48.132-49.733S83.906,0,57.323,0Z" transform="translate(-9.437 0)"/><g transform="translate(37.801 17.658)"><path class="d" d="M302.877,65.736a2.088,2.088,0,0,0-2.229,2.231c0,.459-.362,7.973-.856,12.91-.09-.216-2.715-6.572-3.82-8.786a6.965,6.965,0,0,0-6.707-4.272,18.789,18.789,0,0,0-4.755.837s-.272,4.7-.659,7.863c-.76-4.47-3.7-8.5-10.255-8.5a15.008,15.008,0,0,0-7.887,2.377,1.448,1.448,0,0,0-.386-1.064,2.526,2.526,0,0,0-1.868-.806,4.621,4.621,0,0,0-1.064.194c-.8.258-2.285.822-8.41,1.192-2.891.176-7.928.42-10.022.645-1.125.121-3.1,0-4.867,3.093a4.632,4.632,0,0,0-4.582-3.416,8.707,8.707,0,0,0-4.352,1.8c-.172.2-.394.758-3.683,7.9-3.142,6.821-7.845,16.918-9.206,19.315a27.488,27.488,0,0,1-5.448,1.225c.1-.831.281-2.142.5-3.664.557-3.769,1.375-9.464,2.247-17.054a8.138,8.138,0,0,0-1.73-6.067c-1.431-1.55-2.334-2.04-5.128-2.04a16.6,16.6,0,0,0-2.812.232c0,.452-.057,1.23-.206,3.08-.314,3.909-1.309,12.516-2.97,23-.662-2.537-1.338-5.619-2.388-10.7-.329-1.593-.7-3.058-.951-4.352-1.445-7.486-1.864-10.727-6.186-10.727a7.407,7.407,0,0,0-4.316,1.524c-.31.233-.174.3-5.47,11.425q-2.586,5.437-5.225,10.85c-.7-2.044-2.546-3.77-5.51-5.092,3.041-1.771,6.058-5.736,6.058-9.828,0-4.989-4.576-8.12-13.309-8.12A65.9,65.9,0,0,0,146.159,76.1a60.413,60.413,0,0,1-.788,7.914l-.115.82c-.75,5.321-3.963,25.117-4.361,27.441-.193,1.124-.443,2.814.592,4.042,1.307,1.55,3.964,2.447,8.7,2.447,9.216,0,16.6-2.213,21.236-5.961a13.386,13.386,0,0,0,3.748.751,4.5,4.5,0,0,0,4.559-2.885q.186-.47.369-.943c1.035-2.657,2.1-5.4,3.6-5.936a25.234,25.234,0,0,1,7.729-1.849c.39,1,0,7.429,5.338,7.429a30.416,30.416,0,0,0,6.055-1.014,5.035,5.035,0,0,0,1.87.387c1.444,0,11.463-1.141,14.556-1.552.109-.016.227-.027.349-.038a4.235,4.235,0,0,0,3.967-2.692c.241-.527.464-1.094.7-1.7.656-1.664,1.473-3.735,2.522-4.163a21.7,21.7,0,0,1,6.52-1.672c.049.268.1.669.159,1.086.074.549.167,1.245.3,2.12a4.022,4.022,0,0,0,3.79,3.637c.046,0,.093,0,.14,0a23.723,23.723,0,0,0,4.9-.7,2.481,2.481,0,0,0,1.7-1.366,2.688,2.688,0,0,0,.017-1.989,5.974,5.974,0,0,0,5.511,3.587c1.322,0,2.5-1.07,2.5-4.311,0-7.441,2.207-17.328,3.107-21.051l3.2-.177a21.779,21.779,0,0,0-3.173,11.288c0,10.135,7.873,11.229,10.624,11.229,5.841,0,12.14-4.064,15.523-10.613a10.418,10.418,0,0,1-2.515,5.089,4.839,4.839,0,0,0,4.251,2.57c2.58,0,3.809-1.147,4.387-2.111.686-1.142,2.12-5.474,2.742-12.406.647,1.506,1.383,3.323,2.06,4.959.647,1.56,1.256,3.035,1.749,4.184a5.184,5.184,0,0,0,4.845,3.157c1.5,0,4.237-.741,4.8-1.723.412-.722,4.347-12.639,4.347-21.729,0-4.4-2.162-5.924-5.385-5.924Zm-144.939,15.6a15.331,15.331,0,0,1,3.326-.425c3.509,0,3.509,1.773,3.509,2.441,0,5.479-6.612,6.93-8.43,7.062q.787-4.542,1.6-9.079Zm-2.02,28.037c-.652,0-2.007,0-2.365-.408-.031-.035-.128-.145-.082-.493.257-1.985.646-4.772,1.575-10.4a24.343,24.343,0,0,1,3.723-.466c.941,0,4.124.12,5.531,1.643a2.61,2.61,0,0,1,.653,2.092c-.559,6.992-5.9,8.035-9.036,8.035Zm29.936-13.79q1.457-3.394,2.925-6.783c.392,1.8.871,4.071,1.162,5.448l.124.589c-1.03.161-2.731.439-4.212.746ZM229.3,90.71c.6-1.311,1.451-3.1,2.233-4.8.257,1.53.52,3.176.732,4.292Q230.779,90.427,229.3,90.71ZM243.3,94.293c0,1.016-.046,2.174-.046,2.174-.773-3.157-2.726-14.308-3.272-17.642l5.868-.318C244.153,85.556,243.3,90.879,243.3,94.293Zm24.191-2.163c-1.594,0-2.337-2.636-2.337-4.419,0-4.9,3.28-11.471,6.634-11.471,1.2,0,2.606,1.158,2.606,4.419C274.39,84.6,271.7,92.13,267.486,92.13Z" transform="translate(-140.721 -65.736)"/><path class="e" d="M276.158,71.312a15.253,15.253,0,0,0-9.313,3.669,16.106,16.106,0,0,0,.383-1.654,1.191,1.191,0,0,0-1.209-1.478c-.471,0-1.815,1-9.738,1.478-4.432.269-8.326.615-9.335.672-1.166.065-3.834-.289-5.649,5.368q-.163-1-.327-2.01c-.4-2.485-1.813-3.761-3.9-3.761a8.108,8.108,0,0,0-3.626,1.41c-.335.4-11.024,24.169-12.96,27.4-.2.335-4.894,1.476-7.053,1.476-.336,0,1.209-7.79,2.821-21.825.146-1.268.135-7.119-5.977-7.119-.537,0-1.679.2-1.88.2s-.738,12.826-3.962,29.281c-.94-3.694-1.88-6.77-3.493-14.574-2.081-10.073-2.148-14.372-6.178-14.372a6.441,6.441,0,0,0-3.626,1.41c-.269.2-9.939,20.886-12.222,25.319,0-1.947-.872-7.052-8.6-8.6,3.021-.738,8.26-4.9,8.26-10.14s-5.44-6.85-11.551-6.85-13.968,1.88-17.393,2.753a65.409,65.409,0,0,1-.94,7.991c-.739,5.238-3.963,25.118-4.366,27.468s-.067,5.037,8.4,5.037,16.722-2.418,21.154-6.648c0,.337-.067,1.007,1.209,1.41s5.1,1.344,6.38-1.879,2.418-6.648,4.5-7.388a26.013,26.013,0,0,1,8.193-1.813c.738-.014.873,1.141,1.075,2.485s.671,4.9,4.1,4.9a33.652,33.652,0,0,0,6.044-1.075c.538-.068.538.4,1.881.4s11.265-1.124,14.439-1.546c1.007-.134,2.619,0,3.626-2.216s1.879-5.573,3.693-6.312a21.279,21.279,0,0,1,7.253-1.747c.538,0,.442.81.941,3.963a3.126,3.126,0,0,0,3.022,2.887,22.947,22.947,0,0,0,4.7-.67c1.007-.269,1.694-1.17.874-2.754-.925-1.786-2.539-10.543-4.346-21.516l8.09-.434c-1.11,4.536-2.8,12.1-2.8,16.78,0,7.993,4.7,8.126,5.641,8.126S254,103.95,254,101.4c0-7.6,2.234-17.642,3.29-21.9q2.8-.153,5.607-.312A21.168,21.168,0,0,0,258.9,91.459c0,8.8,5.976,10.343,9.738,10.343,7.857,0,17.125-8.126,17.125-20.148,0-3.359-1.546-10.342-9.6-10.342ZM159.726,83.019s8.494-2.495,8.494,2.732c0,6.3-7.484,7.959-9.563,7.959h-.809q.923-5.349,1.878-10.692Zm-1.247,29.64c-1.426,0-3.57-.016-3.326-1.9.252-1.945.658-4.879,1.679-11.04a27.308,27.308,0,0,1,4.5-.6c1.426,0,7.425.238,7.068,4.692C167.693,112.63,159.9,112.659,158.479,112.659Zm28.428-13.41s3.224-7.521,4.7-10.879c.336,1.277,1.947,9,2.081,9.6C193.69,97.973,189.056,98.644,186.908,99.248Zm43.383-4.768s2.956-6.447,4.231-9.2c0,.268,1.075,6.783,1.41,8.193C235.932,93.473,232.305,93.944,230.291,94.481Zm39.757.94c-2.352,0-3.224-3.29-3.224-5.3,0-5.1,3.425-12.357,7.52-12.357,1.209,0,3.493.94,3.493,5.305S274.951,95.42,270.048,95.42Zm21.759-24.243a6.2,6.2,0,0,1,5.843,3.761c1.731,3.466,4.231,9.8,5.171,11.819.538-2.015,1.276-15.916,1.276-16.386a1.376,1.376,0,0,1,1.343-1.276c2.418,0,4.5.94,4.5,4.969,0,9.066-3.963,20.819-4.231,21.289s-2.418,1.275-4.029,1.275a4.3,4.3,0,0,1-4.029-2.619c-1.612-3.76-4.568-11.215-5.306-12.29-.4,9.2-2.216,14.439-2.821,15.447a3.882,3.882,0,0,1-3.626,1.678,3.66,3.66,0,0,1-3.224-1.612c3.291-2.015,5.372-23.236,5.306-25.519A12.27,12.27,0,0,1,291.807,71.177ZM314.3,69.023a2.122,2.122,0,1,1-.013,4.243,2.123,2.123,0,1,1,0-4.243Zm-.025.426a1.691,1.691,0,0,0,.025,3.38,1.621,1.621,0,0,0,1.613-1.678,1.645,1.645,0,0,0-1.626-1.7Zm-.323,2.786h-.491V70.12a5.589,5.589,0,0,1,.813-.064,1.134,1.134,0,0,1,.723.167.534.534,0,0,1,.219.452.547.547,0,0,1-.439.5V71.2c.207.064.309.232.374.516a1.92,1.92,0,0,0,.155.516h-.515a1.674,1.674,0,0,1-.168-.516c-.038-.22-.167-.323-.438-.323h-.232Zm.013-1.187h.233c.271,0,.489-.091.489-.31,0-.194-.142-.323-.452-.323a1.193,1.193,0,0,0-.271.026v.607Z" transform="translate(-143.282 -68.14)"/><path class="f" d="M171.449,168.665a29.4,29.4,0,0,1-12.424,2.619c-7.79,0-7.473-3.945-6.984-4.1.873-.269.537,3.29,8.126,3.29C165.136,170.479,169.5,169.068,171.449,168.665Zm15.379-6.11c.2-.6,1.064-3.705,2.216-4.769,1.746-1.612,5.171-1.947,5.1-2.619-.036-.359-3.89.343-5.212,1.456C187.271,158.025,186.828,160.271,186.828,162.555Zm26.09-2.737c-.806-.756-.4-3.878-.856-3.878s-.705,3.375.051,4.382c1.058,1.41,6.144.353,7.1,0C217.249,160.322,214.166,160.988,212.918,159.818Zm17.148-2.367c.4-.756,1.665-4.062,3.06-5.145,1.429-1.112,5-1.7,4.824-2.118s-3.91.38-5.471,1.639-2.161,3.659-2.413,5.624Zm24.606-16.471a45.472,45.472,0,0,0-1.259,8.411c0,4.987,2.614,6.906,3.118,6.3s-2.463-1.516-2.463-7.51C254.067,146.369,254.42,143.549,254.672,140.98Zm11.182.453c-.655,4.936.352,11.616,7.742,11.616,2.367,0,3.54-.334,3.339-.787s-.806-.1-2.972-.1C268.372,152.162,265.9,147.629,265.853,141.433Zm37.56.8a25.209,25.209,0,0,0,2.081,4.735c.773.973,2.641,1.31,2.91.806s-1.343-.711-2.372-1.78a26.456,26.456,0,0,1-2.619-3.76Z" transform="translate(-148.844 -120.767)"/><path class="d" d="M171.622,89.27a73.079,73.079,0,0,1,15.513-2.15c9.335,0,10.576,4.28,10.073,4.567-.47.268-2.821-3.963-12.155-3.963-4.7,0-11.618,1.478-13.431,1.545Zm48.924,14.1c-2.367-13.1-2.569-17.427-5.943-17.427-1.259,0-2.015.4-1.864.806s2.294-.513,3.375,1.31C217.725,90.781,219.488,99.948,220.546,103.373Zm12.692,2.972c.4-2.921,1.864-14.5,1.864-16.621,0-3.425-4-4.695-4.231-4.231-.4.806,3.173.3,3.173,6.8C234.043,95.264,233.238,103.927,233.238,106.345Zm28.719-5.137c-1.562-11.131-1.621-17.226-5-17.226-1.058,0-1.588.287-1.538.741s1.89-.539,3.1,1.727C259.584,88.44,261.191,97.631,261.956,101.207Zm34.511-19.19c-2.972,0-6.667,1.31-6.315,1.763s2.72-.907,5.843-.907c7.253,0,7.958,7.152,7.958,10.728C305.716,83.881,299.439,82.018,296.468,82.018Zm24.411,12.41c-.823-2.422-3.146-8.978-4.93-10.793-1.558-1.587-4.163-2.04-4.475-1.5s2.416.338,3.965,2.295C317.167,86.608,319.15,90.971,320.878,94.427Z" transform="translate(-163.321 -77.57)"/><g transform="translate(63.657 33.634)"><path class="e" d="M381.829,203.887l-.712,4.862-.705,4.833a.173.173,0,0,1-.169.154l-2.431.33-.118.016,0-.13.705-4.819.708-4.849a.161.161,0,0,1,.154-.151l2.459-.333.12-.016Zm4.3-.7-1.431,9.785a.194.194,0,0,1-.142.181l-2.254.3q-.1.016-.088-.191l1.428-9.77.024-.164.1-.014,2.253-.3C386.115,203,386.151,203.061,386.132,203.19Zm.511,11.9.759-1.514q.218-.438.449-.869c.12-.223.263-.483.433-.778l-1.829-6.084c-.041-.119.02-.2.179-.229l2.3-.311c.091-.013.143.035.17.138l.871,3.379,1.575-3.711a.331.331,0,0,1,.261-.194l2.195-.3c.109-.013.133.05.074.194q-2.447,5.094-3.757,7.591a16.5,16.5,0,0,1-1.445,2.532l-2.122.287-.163.021Zm11.5-11.216a2.585,2.585,0,0,1,2.24.581,2.491,2.491,0,0,1,.592,2.3l-.1.608-.114.38a.375.375,0,0,1-.34.247l-4.373.592a.893.893,0,0,0,.271.882,1.276,1.276,0,0,0,1.023.2,1.858,1.858,0,0,0,.829-.311,3.969,3.969,0,0,0,.688-.619l.088-.013c.027.016.059.034.088.056a.237.237,0,0,1,.079.1l.34.569.335.582.085.22a1.013,1.013,0,0,1-.3.377,5.879,5.879,0,0,1-1.015.582,5.127,5.127,0,0,1-1.554.478,2.958,2.958,0,0,1-2.62-.677,3.082,3.082,0,0,1-.64-2.763,5.128,5.128,0,0,1,1.443-2.915A4.948,4.948,0,0,1,398.141,203.875Zm-1.913,3.422,2.476-.335a.936.936,0,0,0-.207-.858.921.921,0,0,0-.856-.218,1.565,1.565,0,0,0-.927.476A2.459,2.459,0,0,0,396.229,207.3Zm10.08-1.52a.748.748,0,0,0-.157-.677.732.732,0,0,0-.637-.16,1.411,1.411,0,0,0-.686.269,1.724,1.724,0,0,0-.484.574l-.678,4.631c-.016.1-.048.157-.1.173l-2.3.311c-.069.008-.1-.053-.087-.191l1.025-7.016c.016-.12.061-.185.13-.194l2.15-.291c.1-.013.141.06.127.217l-.138.948a2.873,2.873,0,0,1,1-1.137,3.38,3.38,0,0,1,1.493-.578q2.284-.309,1.932,2.108l-.731,4.984c-.021.149-.082.229-.181.242l-2.224.3c-.069.008-.1-.04-.093-.149Zm10.752-4.456a2.588,2.588,0,0,1,2.242.582,2.487,2.487,0,0,1,.593,2.3l-.1.609-.114.377a.375.375,0,0,1-.34.25l-4.373.592a.892.892,0,0,0,.268.879,1.276,1.276,0,0,0,1.026.207,1.855,1.855,0,0,0,.829-.311,3.948,3.948,0,0,0,.686-.619l.091-.013c.027.016.056.034.087.056a.242.242,0,0,1,.08.1l.337.566.335.585.088.22a.985.985,0,0,1-.3.375,5.69,5.69,0,0,1-1.015.585,5.184,5.184,0,0,1-1.554.478,2.958,2.958,0,0,1-2.62-.678,3.081,3.081,0,0,1-.643-2.763,5.133,5.133,0,0,1,1.442-2.914A4.954,4.954,0,0,1,417.061,201.321Zm-1.91,3.42,2.476-.335a.934.934,0,0,0-.207-.857.916.916,0,0,0-.856-.218,1.563,1.563,0,0,0-.927.474A2.457,2.457,0,0,0,415.151,204.741Zm13.364-4.607-.7,4.806a8.389,8.389,0,0,1-1.541,4.18,5.3,5.3,0,0,1-4.7,1.592,6.606,6.606,0,0,1-1.132-.25l-.385-.168.021-.133.428-.834.449-.885a1.086,1.086,0,0,1,.1-.157c.024-.034.048-.066.072-.1l.231.111a1.3,1.3,0,0,0,.29.1q.24.058.478.12a2.818,2.818,0,0,0,.994.064,2.412,2.412,0,0,0,1.485-.619,2.654,2.654,0,0,0,.616-1.522,2.64,2.64,0,0,1-.922.787,3.679,3.679,0,0,1-1.243.391,2.575,2.575,0,0,1-2.3-.59,2.865,2.865,0,0,1-.532-2.519,4.81,4.81,0,0,1,1.321-2.757,4.312,4.312,0,0,1,2.572-1.3,3.01,3.01,0,0,1,1.14.069,1.156,1.156,0,0,1,.76.46l.077-.52c.016-.118.072-.184.16-.2l2.208-.3.082.033Zm-4.2,2.5a1.893,1.893,0,0,0-1.1.571,1.98,1.98,0,0,0-.59,1.143,1.148,1.148,0,0,0,.261,1,1.089,1.089,0,0,0,.42.25,1.323,1.323,0,0,0,.571.024,1.977,1.977,0,0,0,1.11-.536,1.86,1.86,0,0,0,.59-1.137,1.132,1.132,0,0,0-.271-1.027A1.056,1.056,0,0,0,424.312,202.634Zm4.936,6.7.76-1.515q.218-.437.446-.869c.119-.223.266-.483.433-.778l-1.828-6.084c-.04-.12.018-.2.18-.23l2.3-.309c.088-.012.143.035.167.137l.872,3.38,1.575-3.711a.337.337,0,0,1,.261-.2l2.194-.3c.109-.014.133.051.074.2q-2.447,5.089-3.757,7.589a16.471,16.471,0,0,1-1.445,2.529l-2.12.287-.164.024.053-.154Zm6.759-4.57c-.013-.114.013-.191.077-.229l1.674-.82c.064-.028.111.021.146.147a.831.831,0,0,0,.342.4,1.106,1.106,0,0,0,.707.122,1.633,1.633,0,0,0,.752-.255.685.685,0,0,0,.284-.452.381.381,0,0,0-.226-.449,4.192,4.192,0,0,0-1.233-.26,2.914,2.914,0,0,1-1.5-.529,1.48,1.48,0,0,1-.353-1.447,2.843,2.843,0,0,1,1.132-1.88,5.126,5.126,0,0,1,2.511-.964,3.273,3.273,0,0,1,1.857.157,1.407,1.407,0,0,1,.789,1.04.264.264,0,0,1-.09.214l-1.714.782c-.064.039-.136,0-.215-.114a.858.858,0,0,0-.34-.318.967.967,0,0,0-.619-.09c-.544.073-.839.279-.89.614-.021.148.066.255.266.319a7.25,7.25,0,0,0,1.334.175,2.954,2.954,0,0,1,1.6.517,1.413,1.413,0,0,1,.422,1.43,3.331,3.331,0,0,1-1.179,2.1,4.865,4.865,0,0,1-2.586,1.076,3.611,3.611,0,0,1-2.027-.154A1.865,1.865,0,0,1,436.007,204.767Zm6.552.319,1.82-2.791,1.459-2.234.5-.737-2.4.381c-.117.016-.17-.019-.157-.109l.231-1.584a.21.21,0,0,1,.157-.167l5.946-.8c.077-.011.122.013.135.071l-.085.17-3.876,5.649,2.76-.4c.13-.017.191.023.186.121l-.244,1.672c-.013.09-.088.143-.226.162l-6.124.826c-.091.013-.138-.008-.151-.064Zm11.781-8.8a2.59,2.59,0,0,1,2.243.582,2.491,2.491,0,0,1,.592,2.3l-.1.609-.114.379a.376.376,0,0,1-.34.25l-4.373.591a.894.894,0,0,0,.269.881,1.285,1.285,0,0,0,1.025.207,1.846,1.846,0,0,0,.829-.312,3.818,3.818,0,0,0,.685-.619l.09-.012c.027.016.056.033.088.054a.237.237,0,0,1,.08.1l.337.567.337.583.085.22c-.01.07-.111.2-.3.376a5.9,5.9,0,0,1-1.015.584,5.215,5.215,0,0,1-1.555.479,2.967,2.967,0,0,1-2.62-.68,3.076,3.076,0,0,1-.64-2.762,5.141,5.141,0,0,1,1.44-2.914A4.955,4.955,0,0,1,454.34,196.284Zm-1.91,3.421,2.476-.335a.936.936,0,0,0-.207-.857.913.913,0,0,0-.856-.218,1.56,1.56,0,0,0-.927.475A2.456,2.456,0,0,0,452.429,199.7Zm9.055-2.065a1.034,1.034,0,0,0-.529.231,1.827,1.827,0,0,0-.43.45l-.656,4.5a.2.2,0,0,1-.143.179l-2.253.3c-.07.009-.1-.053-.088-.192l1.025-7.017.021-.149.109-.044,2.192-.3c.061-.008.091.046.1.162l-.1.71a2.611,2.611,0,0,1,.85-.9,2.534,2.534,0,0,1,1.076-.443,1.58,1.58,0,0,1,1.289.269,1.307,1.307,0,0,1,.319,1.256l-1.74,1.761-.141.077-.239.045C462.236,197.866,462.015,197.568,461.484,197.64Zm5.433,1.618a.8.8,0,0,0,.14.706.9.9,0,0,0,.231.121.837.837,0,0,0,.417.024,1.5,1.5,0,0,0,.693-.269,1.571,1.571,0,0,0,.478-.586l.686-4.681c.013-.1.045-.155.1-.172l2.3-.311c.072-.009.1.056.09.192l-1.023,7c-.019.118-.063.182-.13.19l-2.136.29c-.119.016-.167-.049-.146-.2l.106-.726a2.258,2.258,0,0,1-.941,1.016,4.219,4.219,0,0,1-1.53.478q-2.271.3-1.916-2.111l.767-4.962c.024-.157.085-.249.186-.272l2.211-.3c.09-.012.122.052.1.19Zm2.3-7.754-1.286,1.973c-.292.45-.524.689-.693.711s-.229-.015-.215-.1l.364-2.5a.192.192,0,0,1,.073-.1l1.758-.239a.232.232,0,0,1,.024.123c-.01.064-.019.11-.024.135Zm2.248-.3-.753,1.138-.78,1.192a.672.672,0,0,1-.449.355.322.322,0,0,1-.176-.01.09.09,0,0,1-.04-.095l.368-2.5a.111.111,0,0,1,.08-.105l1.749-.237a.2.2,0,0,1,.021.121l-.02.136Z" transform="translate(-377.694 -190.943)"/></g><g transform="translate(159.443 34.139)"><path class="e" d="M735.738,192.823h-.008a1.447,1.447,0,1,0,.008,0Zm0,2.548a1.132,1.132,0,0,1-.017-2.263h.008a1.1,1.1,0,0,1,1.089,1.14A1.085,1.085,0,0,1,735.738,195.371Z" transform="translate(-734.27 -192.823)"/><path class="e" d="M738.776,196.509c-.043-.19-.112-.3-.25-.346v-.017a.366.366,0,0,0,.294-.337.358.358,0,0,0-.146-.3.758.758,0,0,0-.484-.112,3.739,3.739,0,0,0-.544.043v1.416h.328v-.562h.156c.181,0,.268.069.293.216a1.123,1.123,0,0,0,.113.346h.345a1.26,1.26,0,0,1-.1-.345Zm-.639-.449h-.156v-.406a.807.807,0,0,1,.181-.017c.208,0,.3.086.3.216C738.466,196,738.319,196.06,738.138,196.06Z" transform="translate(-736.739 -194.704)"/></g></g></svg>