<svg xmlns="http://www.w3.org/2000/svg" width="185.106" height="63.096" viewBox="0 0 185.106 63.096"><defs><style>.a{fill:#fff;}.a,.b,.c,.d{fill-rule:evenodd;}.b{fill:#231f20;}.c{fill:#ed1c24;}.d{fill:#181818;}</style></defs><path class="a" d="M494.857,60.906l-.08.058-1.216.8-1.257.74-1.3.688-1.335.63-1.37.572-1.4.508-1.434.448L484,65.733l-1.492.318L481,66.3l-1.539.18-1.561.111-1.58.036-1.58-.036-1.558-.111-1.542-.18-1.514-.251-1.492-.318-1.464-.384-1.434-.448-1.4-.508-1.37-.572-1.332-.63-1.3-.688-1.257-.74-1.216-.8-1.172-.848-1.13-.9-1.08-.948-1.031-1-.981-1.039-.928-1.086-.873-1.127-.815-1.169-.757-1.207-.7-1.243-.63-1.282-.564-1.312-.5-1.346-.425-1.376-.354-1.4-.279-1.428-.2-1.451-.122-1.473-.041-1.487.041-1.489.122-1.473.2-1.451L445.924,32l.354-1.4.425-1.376.5-1.346.564-1.312.63-1.279.7-1.246.757-1.207.815-1.169.873-1.127.928-1.086.981-1.039,1.031-1,1.08-.948,1.13-.9,1.172-.848L458.962,14l.006-.752.028-.873.052-.909.075-.945.1-.992.271-2.042.064-.26.052-.193.058-.185.064-.18.069-.177.077-.171.083-.169.1-.166.1-.163.122-.16.141-.157.163-.152.191-.144.218-.127.246-.1.271-.072.285-.03.285.014.271.052.249.086.221.111.2.124.169.135.152.141.133.149.119.149.105.152.1.157.088.16.083.166.08.171.058.141.566,1.271.135.3.141.3.144.3.149.293.152.293.157.3.16.29.163.293.163.279,1.133-.354,1.464-.384,1.492-.318,1.514-.251.1-.011-.055-.108-.094-.2-.086-.193-.077-.193-.069-.193-.061-.2-.05-.2-.039-.21-.025-.221,0-.238.019-.254.058-.274.1-.285.16-.282.21-.254.251-.21.268-.157.268-.1.254-.064.24-.033.227-.008.213.008.2.019.2.033.2.041.2.05.2.058.2.064.2.072.207.08.213.086.31.133.707.442.387.254.381.262.376.268.37.276.362.285.356.29.348.3.343.307.337.312.091.086,1.365.16,1.514.251L484,9.956l1.464.384,1.434.448,1.4.511,1.37.569,1.335.63,1.3.688,1.257.743,1.216.8,1.172.848,1.13.9,1.08.948,1.031,1,.984,1.039.926,1.086.873,1.127.815,1.169.757,1.207.7,1.243.63,1.282.566,1.312.495,1.346.428,1.376.351,1.4.279,1.428.2,1.451.122,1.473.041,1.489-.041,1.487-.122,1.473-.2,1.451-.279,1.428-.351,1.4-.428,1.376-.495,1.346-.566,1.312-.63,1.282-.7,1.243-.757,1.207-.815,1.169-.873,1.127-.765.9.036.133.066.251.072.249.072.246.075.246.075.243.077.246.08.243.083.243.1.307.047.163.036.124.005.025.072.182.1.274.088.268.075.26.066.26.052.254.039.257.025.262,0,.271-.019.285-.058.3-.108.318-.174.323-.246.3-.307.254-.343.18-.345.108-.332.047-.31,0-.29-.028-.274-.053-.268-.072-.263-.088-.265-.1-.268-.116-.276-.133-.285-.149-.293-.16-.307-.18-.315-.193-.332-.21-.345-.229-.8-.55Z" transform="translate(-322.248 -3.532)"/><path class="b" d="M498.69,63.029l-.906.655-1.158.76-1.2.707-1.235.655-1.271.6-1.307.553-1.337.472-1.382.428-1.4.367-1.42.309-1.448.238-1.47.174-1.492.1-1.509.036-1.509-.036-1.492-.1-1.47-.174-1.448-.238-1.423-.3-1.384-.37-1.382-.431-1.337-.486-1.307-.553-1.271-.6-1.235-.655-1.2-.7-1.158-.76-1.105-.807-1.075-.857-1.028-.9-.981-.945-.931-.989-.881-1.031-.829-1.069-.774-1.105-.716-1.144-.658-1.18-.6-1.21-.536-1.243-.47-1.271-.4-1.3-.334-1.323-.276-1.348-.191-1.382-.116-1.382L450.6,41.79l.039-1.406L450.755,39l.191-1.382.276-1.348.334-1.323.4-1.3.47-1.271.536-1.243.6-1.21.658-1.177.716-1.144.774-1.105.829-1.069.881-1.031.931-.989.981-.945,1.028-.9,1.075-.857,1.105-.807,1.158-.771.605-.356-.014-.752v-.8l.028-.829.05-.873.072-.912.094-.953.254-1.934c.4-1.741,1.21-1.829,1.785-.387l.577,1.3.144.312.149.312.152.312.158.309.16.309.163.307.169.307.171.307.177.307.182.3.185.3.191.3.08.124.823-.315,1.382-.428,1.381-.365,1.423-.3,1.448-.238,1.47-.174.829-.058-.042-.08-.133-.254-.135-.251-.138-.249-.141-.249-.437-.763c-.961-1.843-.318-2.238,1.785-1.315l.594.373.362.238.356.243.351.251.343.257.337.276.332.276.326.276.32.276.315.29.307.3.146.146.345.025,1.47.174,1.448.238,1.423.3,1.4.367,1.382.428,1.3.478,1.307.553,1.271.6,1.235.655,1.2.707,1.158.76,1.105.807,1.1.859,1.022.89.981.945.931.989.887,1.044.829,1.069.774,1.105.716,1.141.658,1.18.6,1.21.533,1.243.47,1.271.4,1.3.334,1.323.276,1.348L509.577,39l.116,1.382.039,1.406-.039,1.406-.116,1.382-.191,1.382-.276,1.348-.334,1.323-.4,1.3L507.9,51.2l-.533,1.243-.6,1.21-.658,1.18L505.4,55.98l-.774,1.105-.829,1.069-.881,1.031-.365.387.03.133.066.276.066.276.069.276.072.276.075.26.075.26.077.257.08.257.08.254.083.254.083.251.1.276.036.119.028.1.025.1c1.086,2.733.276,3.39-3.258,1.011l-1.02-.7-.624-.434Z" transform="translate(-326.098 -7.473)"/><path class="a" d="M572.96,125.311l-1.105-3.81a38.927,38.927,0,0,1-14.064-3.479c4.045,4.18,9.218,6.413,15.172,7.289Zm-1.448-4.973-1.207-4.145c-7.043-.019-12.851-1.235-16.854-4.2a26.7,26.7,0,0,0,3.567,5.228,35.093,35.093,0,0,0,14.487,3.133Z" transform="translate(-400.531 -81.047)"/><path class="a" d="M559.43,83.552a9.586,9.586,0,0,0,1.326.276,2.628,2.628,0,0,1,.829-1.757q-.5-.536-1.006-.981a4.192,4.192,0,0,0-1.141,2.335v.127Z" transform="translate(-404.858 -58.685)"/><path class="c" d="M509.832,69.109C498.7,61.475,486.857,52.254,480.146,46.9a67.848,67.848,0,0,0-7.4-4.551,5.865,5.865,0,0,0-3.056-.95,30.941,30.941,0,0,0-5.94.177l4.205.276a9.2,9.2,0,0,1,2.528.58c5.153,2.1,10.823,6.523,16.6,11.431l-5.8,1.02a3.86,3.86,0,0,1-2.99-.611L462.91,44.051a23.182,23.182,0,0,1,6.211-12.157l4.122.144.984-1.417a10.888,10.888,0,0,0,6.018,4.288c-4.352-2.575-6.927-5.559-5.587-16.169A31.875,31.875,0,0,0,481.6,28.7l8.944-1.086a31.279,31.279,0,0,0-3.465-9.074,21.484,21.484,0,0,1,8.375,10l-3.235-1.774c6.438,5.75,11.182,12.42,12.9,20.723-6.609.088-12.74-.729-17.382-4.379a2.824,2.824,0,0,1,1.658-1.583c-3.072.307-3.868,2.136-2.727,5.49a6.082,6.082,0,0,1,.437-2.594c4.518,9.14,15.448,14.473,21.728,14.451.508.03.589.3.605.605a27.492,27.492,0,0,0,1.658,9.671c.276.917.064.975-.37.641l-.89-.685ZM495.237,40.716a22.428,22.428,0,0,0-4.99-5.968c-2.357-1.978-5.772-1.315-8.369-.188l2.321-.188a7.5,7.5,0,0,0,5.9,5.043,5.172,5.172,0,0,0,2.628-.348.754.754,0,0,1,.671.08l1.837,1.569Z" transform="translate(-335.007 -13.417)"/><path class="c" d="M482.71,166.351l2.636-4.169a1.194,1.194,0,0,1,1.147-.478c6.83,1.105,10.138,2.539,12.613,4.587.746.616.127,1.326-.923.956l-9.013-3.186q-1.619-.431-.1.318c6.231,2.559,11.9,5.089,16.755,7.582,1.2.807.829,1.876-.829,1.879a76.18,76.18,0,0,1-12.613-2.21l-.263,1.495a26.318,26.318,0,0,1-9.414-6.789Z" transform="translate(-349.336 -117.015)"/><path class="c" d="M616.543,102.466l6.852-1.2a5.134,5.134,0,0,0,2.39-1.351,23.633,23.633,0,0,1,.9,5.8l-2.639-1.29-6.33,2.606-.373-1.694-.2-.793-.213-.785-.229-.774-.166-.511Z" transform="translate(-446.189 -72.305)"/><path class="a" d="M547.731,74.768a5.875,5.875,0,0,0-2.821-.221,5.378,5.378,0,0,0,4.009,4.208v-.116a3.672,3.672,0,0,1,.674-2.724,9.2,9.2,0,0,0-1.207-.829,5.163,5.163,0,0,0-1.2,2.763,4.152,4.152,0,0,1,.553-3.092Z" transform="translate(-394.35 -53.902)"/><path class="c" d="M488.233,31.143c13.508,1.848,23.93,12.6,23.93,25.53a24.421,24.421,0,0,1-6.032,15.959h0l-.044-.3-.039-.3-.036-.3-.033-.307-.03-.312-.028-.315-.022-.321-.017-.293a22.519,22.519,0,0,0,4.553-13.506c0-11.511-8.914-21.179-20.75-23.533l-.069-.108-.243-.365-.249-.359-.257-.354-.263-.348-.276-.343-.1-.124Zm13.1,45.866A29.5,29.5,0,0,1,484.1,82.477c-15.459,0-28.067-11.6-28.067-25.812,0-8.861,4.9-16.7,12.331-21.355l.055.472.1.647.122.619.03.124a23.511,23.511,0,0,0-10.908,19.5c0,13.263,11.829,24.08,26.332,24.08a27.823,27.823,0,0,0,15.749-4.794l.249.177,1.055.746.2.138Zm-27.3-44.424A29.932,29.932,0,0,1,482.6,30.9l.017.039.113.276.111.276.108.276.1.276.1.276.1.276.019.05a28.3,28.3,0,0,0-8.132,1.426l-.124-.152-.232-.3-.227-.3-.224-.3-.218-.3-.08-.113Z" transform="translate(-330.028 -22.362)"/><path class="b" d="M0,0H15.175V16.462H17.8V0H32.971V50.771H17.8V31.551H15.175V50.773H0ZM35.684,0H60.828V13.931H52.641v3.777h7.736V31.554H52.641v5.291h9.165V50.776H35.684ZM81.205,36.848h7.3V50.779H64.251V0H81.205ZM91.66,0h16.954V36.848h7.3V50.779H91.66Z"/><path class="a" d="M4.32,4.32H17.107V20.782h5.009V4.32H34.9V52.7H22.117V33.484H17.107V52.706H4.32ZM40,4.32H62.761V15.864H54.574v6.164H62.31V33.486H54.574v7.678h9.165V52.709H40ZM83.138,41.168h7.3V52.712H68.571V4.32H83.141V41.168ZM95.98,4.32H110.55V41.168h7.3V52.712H95.98Z" transform="translate(-3.126 -3.126)"/><path class="c" d="M8.62,8.62H19.031V25.082h7.377V8.62H36.819V54.627H26.408V35.4H19.031V54.627H8.62Zm35.684,0H64.682v9.165H56.5v8.543h7.736V35.41H56.5V45.473h9.165v9.165H44.3ZM85.062,45.473h7.3v9.165H72.871V8.62h12.19ZM100.28,8.62h12.19V45.473h7.3v9.165H100.28Z" transform="translate(-6.238 -6.238)"/><path class="d" d="M4.29,199.26h5.761v1.785H6.525v1.127h2.9v1.652h-2.9v1.3H10.1v1.788H4.29V199.26Z" transform="translate(-3.105 -144.204)"/><path class="d" d="M42.69,199.26H44.9l2.454,4.034-.1-4.034H49.2v7.648H47.3L44.516,202.3l.088,4.606H42.69V199.26Z" transform="translate(-30.895 -144.204)"/><path class="d" d="M82.58,199.26h5.764v1.785H84.818v1.127h2.9v1.652h-2.9v1.3h3.567v1.788H82.58V199.26Z" transform="translate(-59.763 -144.204)"/><path class="d" d="M118.57,199.26h3.736c1.992,0,3,.741,3,2.238a2.017,2.017,0,0,1-1.332,2.069l1.382,3.338h-2.517l-1.136-2.9h-.8v2.9h-2.324V199.26Zm2.324,1.63v1.5H122c.572,0,.923-.332.923-.749,0-.508-.318-.749-.959-.749Z" transform="translate(-85.809 -144.204)"/><path class="d" d="M161.474,205.717a2.49,2.49,0,0,1-2.116.87c-2,0-3.338-1.478-3.338-3.912s1.409-3.965,3.7-3.965a2.969,2.969,0,0,1,3.161,2.719l-2.21.221c-.1-.757-.5-1.191-1.025-1.191-.829,0-1.18.716-1.18,2.238,0,1.442.376,2.136,1.235,2.136a.986.986,0,0,0,1.033-.87v-.091h-1.265v-1.608h3.451V206.5H161.8l-.321-.793Z" transform="translate(-112.911 -143.806)"/><path class="d" d="M195.812,203.626,193.3,199.26h2.567l1.321,2.512,1.279-2.512H200.5l-2.346,4.288v3.36h-2.346v-3.282Z" transform="translate(-139.891 -144.204)"/><path class="d" d="M249,199.255h2.94a4.144,4.144,0,0,1,2.21.506,3.781,3.781,0,0,1,1.658,3.316,3.907,3.907,0,0,1-1.42,3.117,4.086,4.086,0,0,1-2.534.7H249Zm2.874,5.86c.848,0,1.445-.782,1.445-2.07s-.553-2.028-1.382-2.028h-.594v4.1Z" transform="translate(-180.201 -144.196)"/><path class="d" d="M288.3,199.26h3.73c1.995,0,3,.741,3,2.238a2.017,2.017,0,0,1-1.332,2.069l1.382,3.338h-2.512l-1.136-2.9h-.8v2.9H288.3Zm2.324,1.63v1.5h1.105c.572,0,.923-.332.923-.749,0-.508-.321-.749-.959-.749Z" transform="translate(-208.642 -144.204)"/><path class="d" d="M329.15,199.27h2.39v7.645h-2.39V199.27Z" transform="translate(-238.205 -144.211)"/><path class="d" d="M352.88,199.26h2.213l2.456,4.034-.1-4.034h1.94v7.648h-1.9l-2.788-4.606.088,4.606H352.88V199.26Z" transform="translate(-255.379 -144.204)"/><path class="d" d="M391.58,199.26h2.139v3.186l2.047-3.186h2.15l-1.929,2.824,2.4,4.824h-2.534l-1.387-2.954-.752,1.067v1.887H391.58V199.26Z" transform="translate(-283.386 -144.204)"/><path class="b" d="M406.713,4.815a1.934,1.934,0,1,1-1.934,1.934,1.934,1.934,0,0,1,1.934-1.934Zm0-.495a2.423,2.423,0,1,1-2.423,2.423A2.423,2.423,0,0,1,406.713,4.32Z" transform="translate(-292.584 -3.126)"/><path class="b" d="M408.44,7.89h1.4c.749,0,1.127.276,1.127.829a.757.757,0,0,1-.5.779l.517,1.257h-.945l-.428-1.089h-.3v1.1h-.873V7.89Zm.873.613v.553h.42c.216,0,.348-.124.348-.276s-.119-.276-.359-.276Z" transform="translate(-295.587 -5.71)"/></svg>