<?xml version="1.0" encoding="UTF-8" standalone="no"?>
<svg
   xmlns:dc="http://purl.org/dc/elements/1.1/"
   xmlns:cc="http://creativecommons.org/ns#"
   xmlns:rdf="http://www.w3.org/1999/02/22-rdf-syntax-ns#"
   xmlns:svg="http://www.w3.org/2000/svg"
   xmlns="http://www.w3.org/2000/svg"
   xmlns:sodipodi="http://sodipodi.sourceforge.net/DTD/sodipodi-0.dtd"
   xmlns:inkscape="http://www.inkscape.org/namespaces/inkscape"
   viewBox="0 0 738 264"
   width="738"
   height="264"
   version="1.1"
   id="svg482"
   sodipodi:docname="Background.svg"
   inkscape:version="0.92.5 (2060ec1f9f, 2020-04-08)">
  <metadata
     id="metadata488">
    <rdf:RDF>
      <cc:Work
         rdf:about="">
        <dc:format>image/svg+xml</dc:format>
        <dc:type
           rdf:resource="http://purl.org/dc/dcmitype/StillImage" />
      </cc:Work>
    </rdf:RDF>
  </metadata>
  <defs
     id="defs486" />
  <sodipodi:namedview
     pagecolor="#ffffff"
     bordercolor="#666666"
     borderopacity="1"
     objecttolerance="10"
     gridtolerance="10"
     guidetolerance="10"
     inkscape:pageopacity="0"
     inkscape:pageshadow="2"
     inkscape:window-width="1294"
     inkscape:window-height="704"
     id="namedview484"
     showgrid="false"
     inkscape:zoom="1.4446968"
     inkscape:cx="370.28859"
     inkscape:cy="90.592706"
     inkscape:window-x="984"
     inkscape:window-y="1107"
     inkscape:window-maximized="1"
     inkscape:current-layer="Background" />
  <style
     id="style468">
		tspan { white-space:pre }
		.shp0 { fill: #ffffff } 
		.shp1 { fill: #7a233c } 
		.shp2 { fill: #f05d8c } 
		.shp3 { fill: #dc386d } 
		.shp4 { fill: #a9d6af } 
		.shp5 { fill: #7bb082 } 
		.shp6 { fill: #e8d4c3 } 
	</style>
  <g
     id="Background">
    <path
       id="Path 1"
       class="shp1"
       d="M79.5 33.45C76.2 34.16 70.8 35.83 67.5 37.16C64.2 38.48 58.82 41.35 55.54 43.53C52.26 45.71 47.34 49.75 44.61 52.5C41.88 55.25 38.18 59.75 36.37 62.5C34.41 65.5 31.85 71.89 29.97 78.5C27.37 87.63 26.84 91.29 26.82 100C26.81 106.66 27.42 112.88 28.48 117C29.41 120.57 31.46 126.65 33.05 130.5C34.63 134.35 37.08 138.62 38.49 140C40.5 141.96 41.64 142.35 43.78 141.8C46.14 141.19 47.16 141.77 51.5 146.2C54.25 149 58.52 152.59 61 154.18C63.47 155.77 68.65 158.01 72.5 159.16C76.78 160.44 82.61 161.3 87.5 161.38C91.9 161.45 98.09 161.16 101.25 160.75C104.92 160.27 107 160.36 107 161C107 161.55 110.64 172.24 115.08 184.75C119.53 197.26 125.38 213.69 128.08 221.25C130.79 228.81 133 236.35 133 238C133 239.87 133.94 241.94 135.5 243.5C137.12 245.12 139.15 246.01 141.25 246.03C143.04 246.05 145.74 245.15 147.25 244.03C148.76 242.92 150.26 240.99 150.57 239.75C150.89 238.51 150.16 234.57 148.96 231C147.75 227.42 142.36 211.67 136.97 196C131.58 180.32 126.01 164.46 124.59 160.75L122 154C129.36 150.29 134.31 147.14 137.75 144.61C141.19 142.07 145.85 137.64 148.1 134.75C150.36 131.86 153.39 126.94 154.85 123.8C156.33 120.61 158.49 117.64 159.75 117.05C161.06 116.44 162.47 114.44 163.12 112.25C164.03 109.22 163.91 107.35 162.52 102.5C161.11 97.58 160.99 95.42 161.83 90.5C162.52 86.48 162.53 83.02 161.86 80C161.31 77.52 159.22 72.35 157.21 68.5C154.76 63.81 150.9 58.85 145.52 53.48C138.83 46.78 135.76 44.59 127 40.24C121.18 37.36 113.38 34.37 109.5 33.53C105.65 32.71 98.67 32.06 94 32.1C89.32 32.13 82.8 32.74 79.5 33.45Z" />
    <path
       id="Path 2"
       class="shp2"
       d="m 87,37.15 c -4.13,0.5 -10.65,2.01 -14.5,3.38 -3.85,1.36 -9.41,3.94 -12.35,5.73 -2.95,1.78 -8.3,5.94 -11.9,9.24 -3.6,3.3 -7.78,7.8 -9.3,10 -1.53,2.2 -3.81,7.6 -5.07,12 -1.89,6.54 -2.32,10.46 -2.34,21.5 -0.03,10.23 0.4,14.96 1.77,19.5 0.99,3.3 3.24,9.04 5,12.75 1.75,3.71 3.64,6.6 4.19,6.41 0.55,-0.18 1.34,-2.32 1.77,-4.75 0.42,-2.42 1.77,-5.43 3,-6.69 1.43,-1.46 3.4,-2.26 5.48,-2.25 2.37,0.02 3.8,0.78 5.28,2.78 1.12,1.51 2.02,4.21 2,6 -0.01,1.79 0.42,4.15 0.97,5.25 0.55,1.1 1.79,2.02 2.75,2.04 0.96,0.03 2.31,-0.65 3,-1.5 1,-1.24 0.96,-2.82 -0.25,-8.04 -1.07,-4.62 -1.22,-7.29 -0.52,-9.25 0.53,-1.51 2.11,-3.31 3.5,-4 1.38,-0.69 3.08,-1.23 3.77,-1.21 0.69,0.03 1.79,-0.53 2.45,-1.25 0.94,-1.01 0.88,-2.39 -0.26,-6.29 -0.81,-2.75 -1.45,-7.7 -1.43,-11 0.02,-3.84 0.77,-7.62 2.08,-10.5 1.12,-2.48 2.8,-5.34 3.73,-6.36 0.92,-1.02 3.25,-2.65 5.18,-3.62 1.92,-0.98 4.85,-2.08 6.5,-2.46 1.65,-0.38 5.02,-0.16 7.5,0.48 2.96,0.77 5.78,2.5 8.25,5.06 2.06,2.15 4.31,5.71 5,7.92 0.69,2.22 1.06451,3.623727 1.25,4.27 0.0769,0.525915 3.57387,0.150635 5.91387,-1.409365 2.34,-1.57 7.42063,-6.320635 9.19063,-8.470635 1.77,-2.15 2.93065,-6.10387 3.59065,-8.57387 0.67,-2.54 0.95,-8.47709 0.65,-12.14709 -0.31,-3.84 0.0106,-7.917105 -1.67936,-11.957105 C 128.90579,44.361935 124.85,42.52 122.5,41.54 120.85,40.84 116.12,39.57 112,38.7 107.87,37.83 102.25,36.93 99.5,36.69 96.75,36.45 91.12,36.66 87,37.15 Z"
       inkscape:connector-curvature="0"
       style="fill:#f05d8c"
       sodipodi:nodetypes="cccscccccccccccsccccccccccccscccccscccccsc" />
    <path
       id="Path 3"
       class="shp1"
       d="M93 42.5C93 42.77 94.8 44.8 97 47C99.2 49.2 101.22 50.55 101.5 50C101.77 49.45 100.65 47.42 99 45.5C97.35 43.57 95.32 42 94.5 42C93.67 42 93 42.22 93 42.5ZM104.04 44.25C104.07 44.94 105.85 47.52 108 50C110.15 52.47 112.27 54.17 112.71 53.78C113.14 53.38 112.65 51.8 111.62 50.28C110.58 48.75 108.78 46.48 107.62 45.22C106.45 43.97 105.16 42.96 104.75 42.97C104.34 42.99 104.02 43.56 104.04 44.25ZM85.01 44.75C85.01 45.16 86.36 46.29 88.01 47.25C89.65 48.21 91.23 48.66 91.5 48.25C91.78 47.84 91.22 46.7 90.25 45.72C89.29 44.74 87.71 43.95 86.75 43.97C85.79 43.99 85 44.34 85.01 44.75Z" />
    <path
       id="Path 4"
       class="shp3"
       d="M 127.66145,47.647581 C 128.01887,49.748549 129.86,53.52 130.63,56 c 0.77,2.47 1.38,6.97 1.37,10 -0.02,3.02 -0.57,7.3 -1.23,9.5 -0.73,2.43 -3.17,5.98 -6.24,9.06 -2.76,2.78 -6.38,5.66 -8.03,6.39 l -3,1.34 c 1.22,9.46 2.02,14.46 2.58,17.21 0.56,2.75 2.01,6.02 3.22,7.28 1.42,1.46 3.36,2.26 5.45,2.25 1.79,-0.02 4.15,-0.48 5.25,-1.03 1.6,-0.8 2,-2 2,-6 0,-2.75 0.66,-6.69 1.47,-8.75 0.9,-2.27 2.58,-4.26 4.25,-5.04 2,-0.93 3.62,-1.02 5.78,-0.31 1.65,0.55 3.7,2.03 4.56,3.29 0.86,1.27 2.32,4.45 3.25,7.06 1.4,3.95 2.11,4.75 4.19,4.75 1.74,0 2.68,-0.68 3.11,-2.25 0.34,-1.24 -0.12,-4.5 -1.01,-7.25 -0.89,-2.75 -1.62,-6.35 -1.61,-8 0.01,-1.65 0.49,-4.8 1.07,-7 0.84,-3.17 0.71,-5.14 -0.62,-9.5 -0.91,-3.03 -3.23,-7.98 -5.15,-11 -1.92,-3.03 -5.81,-7.91 -8.64,-10.86 -2.83,-2.95 -7.06015,-7.426006 -9.9,-9.25 -2.91726,-1.873711 -4.53404,-3.357423 -5.09404,-3.357423 -0.58,0 -0.19709,-0.9195 0.005,3.115004 z"
       inkscape:connector-curvature="0"
       style="fill:#dc386d"
       sodipodi:nodetypes="cccccccsccsscccccscsscccsssc" />
    <path
       id="Path 5"
       class="shp1"
       d="M607.25 55C605.46 56.1 603.27 58.46 602.37 60.25C601.32 62.36 600.47 67.88 599.95 76C599.51 82.87 598.44 91.54 597.57 95.25C596.71 98.96 596 103.35 596 105C596 106.67 596.89 108.89 598 110C599.16 111.16 601.37 112.01 603.25 112.03C605.04 112.05 607.62 111.23 609 110.2C610.37 109.16 613.37 104.76 615.67 100.41C617.96 96.06 621.18 89.12 622.83 85C624.47 80.87 626.38 74.57 627.06 71C627.76 67.32 627.97 63.2 627.54 61.5C627.12 59.85 625.47 57.26 623.89 55.75C621.49 53.46 620.11 53 615.75 53C612.26 53.01 609.41 53.68 607.25 55ZM307.5 66.11C303.1 66.58 295.9 67.69 291.5 68.58C287.1 69.47 279.22 71.55 274 73.21C268.77 74.86 260.9 78.01 256.5 80.22C252.1 82.42 247.26 85.07 245.75 86.11C244.24 87.15 242.32 89.35 241.5 91C240.67 92.65 239.99 95.69 239.97 97.75C239.95 100.31 240.61 102.13 242.07 103.5C243.44 104.79 245.32 105.42 247.35 105.26C249.08 105.13 254.32 103.04 259 100.62C263.67 98.2 271.55 94.8 276.5 93.06C281.45 91.33 290 88.97 295.5 87.83C302.95 86.29 309.45 85.73 321 85.67C332.76 85.61 338.07 86.01 343 87.32C346.57 88.28 351.52 90.3 354 91.83C356.52 93.38 359.48 96.33 360.73 98.55C362.13 101.02 362.97 104.18 362.96 107C362.96 109.47 362.14 113.3 361.14 115.5C360.14 117.7 357.68 120.96 355.66 122.75C353.65 124.54 350.31 126.85 348.25 127.89C346.19 128.93 342.02 130.51 339 131.41C335.97 132.31 329.45 133.49 324.5 134.04C319.55 134.6 314.71 135.26 313.75 135.53C312.79 135.79 311.32 137.35 310.5 139C309.67 140.65 309 143.8 309 146C309 149.03 309.54 150.36 311.25 151.51C312.49 152.34 314.96 153.01 316.75 153.01C318.54 153 322.36 153.51 325.25 154.12C328.14 154.74 332.19 156.09 334.25 157.12C336.31 158.16 339.13 160.46 340.51 162.25C341.91 164.07 343.28 167.48 343.62 170C344.01 172.97 343.69 175.86 342.67 178.5C341.81 180.7 339.29 184.19 337.06 186.25C334.83 188.31 331.09 190.83 328.75 191.85C326.41 192.86 322.02 194.31 319 195.07C315.6 195.92 307.77 196.45 298.5 196.47L283.5 196.5C283 191.85 283.81 183.97 284.96 176C286.12 168.02 288.39 154.97 290.01 147C291.63 139.02 294.35 127.55 296.06 121.5C297.77 115.45 299.01 109.39 298.83 108.02C298.64 106.6 297.44 105.01 296 104.29C294.62 103.6 291.14 103.02 288.25 103.01C285.36 103.01 281.42 103.67 279.5 104.5C277.57 105.32 275.58 106.79 275.07 107.75C274.56 108.71 272.8 114.67 271.16 121C269.52 127.32 266.98 138.35 265.51 145.5C264.05 152.65 261.77 165.7 260.45 174.5C259.13 183.3 257.48 196.89 256.78 204.69C255.55 218.38 255.57 218.98 257.5 221.6C258.6 223.09 260.85 224.7 262.5 225.18C264.15 225.65 267.75 225.73 270.5 225.34C273.45 224.92 276.63 223.68 278.25 222.32C279.76 221.04 281 219.21 281 218.25C280.99 216.67 282.82 216.44 300.25 215.86C316.12 215.34 321.17 214.79 329 212.74C334.22 211.38 341.65 208.68 345.5 206.75C349.35 204.82 354.91 201.05 357.85 198.37C361.33 195.21 364.31 191.23 366.35 187.02C369.13 181.3 369.5 179.54 369.5 172.02C369.5 164.54 369.16 162.92 366.75 158.75C365.18 156.04 362.07 152.71 359.5 151C357.02 149.35 354.66 148.01 354.25 148.02C353.84 148.03 352.6 147.41 351.5 146.65C349.63 145.35 349.85 145.14 355 143.49C358.02 142.52 363.2 140.36 366.5 138.7C369.8 137.05 374.75 133.56 377.5 130.96C380.25 128.36 383.85 123.59 385.5 120.36C388.24 115 388.5 113.64 388.5 104.5C388.5 95.66 388.2 93.92 385.88 89.5C384.44 86.75 380.84 82.33 377.88 79.67C374.92 77.01 370.25 73.76 367.5 72.45C364.75 71.14 359.8 69.37 356.5 68.52C353.2 67.67 346.67 66.53 342 65.99C337.32 65.46 329.45 65.07 324.5 65.14C319.55 65.21 311.9 65.65 307.5 66.11Z" />
    <path
       id="Path 6"
       class="shp4"
       d="m 90.5,84.41 c -2.75,1.34 -6.17,3.93 -7.59,5.76 -1.43,1.83 -3.12,4.34 -3.75,5.58 -0.9,1.75 -0.83,3.58 0.34,8.25 0.82,3.3 1.5,7.24 1.5,8.75 -0.01,1.51 -0.91,4.21 -2,6 -1.1,1.79 -3.37,4.04 -5.05,5 -2.65,1.52 -2.97,2.15 -2.43,4.75 0.35,1.65 0.88,4.57 1.17,6.5 0.43,2.78 0,4.17 -2.07,6.75 -1.91,2.36 -3.44,3.25 -5.62,3.25 -1.65,0 -3.9,-0.45 -5,-1 -1.1,-0.55 -2.68,-2.35 -3.5,-4 -0.83,-1.65 -1.5,-4.13 -1.5,-5.5 0,-1.38 -0.58,-2.5 -1.3,-2.5 -0.72,0 -1.85,0.56 -2.52,1.25 -0.67,0.69 -1.21,2.26 -1.2,3.5 0.01,1.47 2.01,4.01 5.77,7.34 3.16,2.8 8.22,6.23 11.25,7.62 3.02,1.4 7.91,3.05 10.87,3.66 l 7.503661,1.14448 c 4.49,-5.43 4.471938,-7.9773 4.461938,-8.3873 C 89.835599,147.71718 86.97,146.87 84.5,145.5 82.02,144.12 80,142.55 80,142 c 0,-0.55 0.34,-0.99 0.75,-0.97 0.41,0.02 2.93,1.26 5.6,2.75 4.81,2.69 4.87,2.7 6.27,0.72 1.22,-1.73 3.65805,-0.62517 2.34805,-1.27517 C 94.13805,142.81483 91,140.55 91,140 c 0,-0.55 3,0.18 4.24,0.5 1.96,0.5 1.431115,-0.99413 3.791115,-6.05413 1.499995,-3.21 3.409995,-9.09587 4.239995,-12.94587 0.83,-3.85 1.75175,-10.93413 1.76175,-15.88413 0.01,-4.95 -0.47,-11.699996 -1.08,-14.999996 -0.6,-3.3 -0.86029,-6.204264 -1.49029,-6.914264 C 101.82257,82.98161 98.6,81.93 97.5,81.94 c -1.1,0.02 -4.25,1.13 -7,2.47 z"
       inkscape:connector-curvature="0"
       style="fill:#a9d6af"
       sodipodi:nodetypes="scccccccccsscssscccccccsscccsccsscccs" />
    <path
       id="Path 7"
       class="shp5"
       d="m 102.69,89.25 c 0.7,3.44 1.27,10.52 1.27,15.75 0,5.22 -0.67,12.65 -1.49,16.5 -0.82,3.85 -2.78,9.7 -4.36,13 l -2.87,6 c 8.34,3.49 10.76,4.95 10.76,5.5 0,0.55 -0.68,1 -1.5,1 -0.83,0 -3.52,-1.01 -5.99,-2.25 -4.47,-2.24 -2.732928,-5.15133 -5.92,-0.25 -0.87,1.22 -2.319783,1.30834 -2.319783,1.30834 0,0 4.038966,3.51375 1.969783,3.39166 -1.887388,-0.0907 -1.631768,-1.52882 -2.181768,-1.80882 -0.55,-0.28 -1.798232,3.08882 -3.308232,5.04882 -2.378611,4.49909 -2.435158,3.97762 -0.942063,4.14309 0.96,0.37 5.632063,0.23691 10.442063,-0.41309 4.81,-0.64 11.56,-2.13 15,-3.31 3.44,-1.18 8.95,-3.49 12.25,-5.14 3.3,-1.65 8.47,-4.89 11.5,-7.2 3.02,-2.31 7.23,-6.18 9.34,-8.61 2.11,-2.43 4.7,-6.1 5.75,-8.16 1.05,-2.06 1.93,-4.31 1.95,-5 0.03,-0.69 -0.72,-1.93 -1.65,-2.75 -0.94,-0.83 -2.31,-2.96 -3.04,-4.75 -0.78,-1.87 -2.31,-3.5 -3.6,-3.83 -1.24,-0.33 -3.14,-0.44 -4.22,-0.25 -1.48,0.24 -2.26,1.61 -3.07,5.33 -0.6,2.75 -1.4,5.56 -1.78,6.25 -0.37,0.69 -2.26,1.92 -4.18,2.75 -1.93,0.82 -4.63,1.5 -6,1.5 -1.38,0 -3.74,-0.61 -5.25,-1.36 -1.51,-0.75 -3.76,-3 -5,-5 -1.43,-2.32 -2.8,-7.18 -3.77,-13.39 -0.83,-5.36 -2.18,-11.66 -3,-14 -0.81,-2.34 -2.38,-4.7 -3.48,-5.25 -1.1,-0.55 -3.39999,-1.245805 -3.55999,-1.245805 -0.16,0 1.54999,3.055805 2.24999,6.495805 z"
       inkscape:connector-curvature="0"
       style="fill:#7bb082"
       sodipodi:nodetypes="sssccssccccscccsscssccccccccsscccsss" />
    <path
       d="M 566.25 96.039062 C 563.64 96.059062 559.96984 96.680156 558.08984 97.410156 C 556.21984 98.140156 553.7193 100.02914 552.5293 101.61914 C 551.3493 103.19914 550.02961 105.85 549.59961 107.5 C 549.15961 109.2 549.28086 112.01 549.88086 114 C 550.46086 115.92 552.11078 118.62 553.55078 120 C 555.71078 122.06 557.33008 122.55078 562.83008 122.80078 C 567.78008 123.03078 570.38969 122.64078 572.92969 121.30078 C 574.80969 120.31078 577.20023 118.37 578.24023 117 C 579.27023 115.62 580.37945 112.47 580.68945 110 C 581.05945 107.01 580.74977 104.49 579.75977 102.5 C 578.94977 100.85 576.64062 98.71 574.64062 97.75 C 572.64062 96.79 568.86 96.019063 566.25 96.039062 z M 664.75 133 C 661.76 133 658 133.75 656 134.75 C 652.9 136.3 651.4 138.70937 643 155.60938 C 636.73 168.21937 631.32008 177.57937 627.08008 183.10938 C 623.55008 187.72937 619.61008 192.74 618.33008 194.25 C 616.81008 196.04 615.9907 198.31 615.9707 200.75 C 615.9507 203.07 616.6107 205.1607 617.7207 206.2207 C 618.7007 207.1707 620.74 207.9607 622.25 207.9707 C 624.04 207.9907 626.44992 206.7 629.16992 204.25 C 631.45992 202.19 635.85922 197.35 638.94922 193.5 C 642.02922 189.65 645.8893 184.14 647.5293 181.25 C 649.1593 178.36 650.95 175.9907 651.5 175.9707 C 652.05 175.9607 653.92016 177.8707 655.66016 180.2207 C 657.40016 182.5707 659.76062 186.52 660.89062 189 C 662.03062 191.47 662.97047 194.4 662.98047 195.5 C 663.00047 197.35 662.33992 197.5 654.41992 197.5 C 645.85992 197.5 645.8293 197.51 642.7793 201 C 640.0393 204.13 639.78031 204.98 640.32031 209 C 640.68031 211.72 641.83094 214.42961 643.21094 215.84961 C 644.47094 217.12961 646.85 218.90906 648.5 219.78906 C 650.43 220.81906 654 221.39086 658.5 221.38086 C 664.24 221.38086 666.4 220.89062 670.5 218.64062 C 673.52 216.98063 678.27 215.50969 682.5 214.92969 C 686.35 214.39969 691.97 212.75906 695 211.28906 C 698.02 209.82906 703.01984 206.12055 706.08984 203.06055 C 709.15984 200.00055 712.4907 195.92 713.4707 194 C 714.4607 192.07 715.32062 188.43039 715.39062 185.90039 C 715.46063 183.09039 714.92 180.63938 714 179.60938 C 713.17 178.66937 711.6 177.91016 710.5 177.91016 C 709.32 177.91016 705.21 181.25078 700.5 186.05078 C 696.1 190.52078 691.26 194.80984 689.75 195.58984 C 688.24 196.36984 686.77 197 686.5 197 C 686.22 197 686.00023 195.09 685.99023 192.75 C 685.98023 190.31 684.88992 186.16 683.41992 183 C 682.00992 179.97 678.48984 174.35 675.58984 170.5 C 672.68984 166.65 669.57016 162.04 668.66016 160.25 C 667.75016 158.46 667 155.87 667 154.5 C 667 153.12 668.07086 149.41 669.38086 146.25 C 670.69086 143.09 672.04086 139.49 672.38086 138.25 C 672.76086 136.86 672.42 135.42 671.5 134.5 C 670.55 133.55 668.09 133 664.75 133 z M 475.25 134.98047 C 472.91 134.99047 469.54 135.60008 467.75 136.33008 C 465.96 137.06008 463.64961 138.98008 462.59961 140.58008 C 461.55961 142.19008 459.63008 147.77 458.33008 153 C 457.03008 158.22 455.40047 167.63039 454.73047 173.90039 L 453.5 185.28906 C 447.3 190.58906 442.35 193.71063 438.5 195.64062 C 433.28 198.26063 429.72 199.30023 424.5 199.74023 C 418.65 200.22023 416.72 199.96016 412.75 198.16016 C 410.14 196.97016 407.89 195.55 407.75 195 C 407.61 194.45 407.5 193.52922 407.5 192.94922 C 407.5 192.36922 410.87 190.75914 415 189.36914 C 419.12 187.97914 424.75 185.56023 427.5 183.99023 C 430.25 182.42023 433.92016 179.64055 435.66016 177.81055 C 437.40016 175.99055 439.77945 172.7 440.93945 170.5 C 442.09945 168.3 443.32062 163.8 443.64062 160.5 C 443.96062 157.2 443.71938 152.59 443.10938 150.25 C 442.49937 147.91 440.54 144.34984 438.75 142.33984 C 436.96 140.31984 433.7 137.85937 431.5 136.85938 C 428.89 135.66937 425.25 135.05961 421 135.09961 C 417.42 135.12961 412.47 135.91008 410 136.83008 C 407.52 137.75008 404.15 139.23086 402.5 140.13086 C 400.85 141.02086 397.10016 144.38914 394.16016 147.61914 C 391.22016 150.85914 387.7893 155.75 386.5293 158.5 C 385.2593 161.25 383.72938 165.86 383.10938 168.75 C 382.49937 171.64 382 176.7 382 180 C 382 183.3 382.48961 188.36 383.09961 191.25 C 383.69961 194.14 385.22094 198.3 386.46094 200.5 C 387.71094 202.7 390.92938 206.44078 393.60938 208.80078 C 396.29937 211.17078 400.97 214.03945 404 215.18945 C 408.14 216.75945 411.97 217.30086 419.5 217.38086 C 427.41 217.46086 430.86 217.01977 436 215.25977 C 439.57 214.02977 444.97 211.51039 448 209.65039 C 451.02 207.79039 453.98055 206.54086 454.56055 206.88086 C 455.14055 207.22086 456.1393 208.85 456.7793 210.5 C 457.4193 212.15 458.91008 214.4 460.08008 215.5 C 461.53008 216.86 463.58953 217.5 466.51953 217.5 C 469.75953 217.5 471.50047 216.87 473.48047 215 C 475.00047 213.56 476.76086 210.17 477.63086 207 C 478.46086 203.97 480.06922 198.57 481.19922 195 C 482.31922 191.42 485.17906 184.45 487.53906 179.5 C 489.89906 174.55 493.44016 168.59 495.41016 166.25 C 497.39016 163.91 499.79 162.00023 500.75 161.99023 C 502.31 161.98023 502.43055 162.71023 501.81055 168.74023 C 501.43055 172.46023 500.42984 179.1 499.58984 183.5 C 498.74984 187.9 498.06078 194.42 498.05078 198 C 498.03078 202.79 498.61977 205.65086 500.25977 208.88086 C 501.51977 211.34086 504.03 214.18086 506 215.38086 C 508.79 217.07086 511.02 217.48016 517 217.41016 C 522.47 217.35016 525.85 216.72008 529.5 215.08008 C 532.25 213.85008 536.19 211.52992 538.25 209.91992 C 540.31 208.30992 542.56 207 543.25 207 C 543.94 207 545.4 208.39008 546.5 210.08008 C 547.6 211.77008 550.3 214.1093 552.5 215.2793 C 555.26 216.7493 558.36 217.41922 562.5 217.44922 C 567.19 217.47922 569.81 216.8393 574.5 214.5293 C 577.8 212.8993 583.57961 208.6193 587.34961 205.0293 C 591.10961 201.4393 595.1293 196.92 596.2793 195 C 597.6193 192.75 598.38969 189.68039 598.42969 186.40039 C 598.46969 183.21039 597.94 180.66938 597 179.60938 C 596.17 178.66937 594.6 177.9407 593.5 177.9707 C 592.32 178.0007 587.63 182.0807 582 187.9707 C 573.33 197.0507 572.17 197.91094 568.75 197.96094 C 565.36 198.00094 564.85086 197.64 563.38086 194.25 C 562.20086 191.52 561.91984 188.87 562.33984 184.5 C 562.65984 181.2 564.33055 171.52 566.06055 163 C 567.78055 154.47 569.25961 145.37906 569.34961 142.78906 C 569.46961 139.14906 569.05 137.75008 567.5 136.58008 C 566.36 135.71008 563.36 135.04953 560.5 135.01953 C 557.64 134.99953 554.54 135.63023 553.25 136.49023 C 552.01 137.32023 550.37914 139.24 549.61914 140.75 C 548.86914 142.26 547.05008 148.67 545.58008 155 C 544.11008 161.32 542.35922 170.95086 541.69922 176.38086 L 540.5 186.25977 C 529.49 196.59977 527.28 198 525 198 C 523 198 521.50023 197.25 520.49023 195.75 C 519.66023 194.51 518.98977 192.37 519.00977 191 C 519.01977 189.62 520.5993 180.62 522.5293 171 C 524.4493 161.37 526.01977 150.69 526.00977 147.25 C 525.99977 141.65 525.69 140.69 523 138 C 520.5 135.5 519.2 134.99977 515.25 135.00977 C 512.34 135.01977 508.56 135.94063 505.5 137.39062 C 502.75 138.69063 498.51008 141.50086 496.08008 143.63086 C 493.65008 145.76086 490.00047 149.75 487.98047 152.5 C 485.96047 155.25 483.22039 159.47086 481.90039 161.88086 C 480.58039 164.29086 478.71023 167.67086 477.74023 169.38086 L 475.99023 172.5 C 476.90023 164.75 478.25008 157.89 479.58008 152.25 C 480.91008 146.61 482.00953 140.99 482.01953 139.75 C 482.02953 138.51 481.45953 136.93047 480.76953 136.23047 C 480.06953 135.54047 477.59 134.97047 475.25 134.98047 z M 108.40039 139 C 107.52039 139 106.99977 139.34 107.25977 139.75 C 107.50977 140.16 109.12937 141.06 110.85938 141.75 C 112.87937 142.56 114.18 142.64 114.5 142 C 114.77 141.45 113.87 140.55 112.5 140 C 111.12 139.45 109.28039 139 108.40039 139 z M 91.972656 139.17969 C 91.555469 139.16609 91.220156 139.43313 91.160156 139.89062 C 91.070156 140.50063 93.7 142.35 97 144 C 100.3 145.65 103.67 147 104.5 147 C 105.32 147 106.07945 146.61086 106.18945 146.13086 C 106.28945 145.65086 103.47945 144.0293 99.939453 142.5293 C 96.399453 141.0193 93.010156 139.56906 92.410156 139.28906 C 92.260156 139.21906 92.111719 139.18422 91.972656 139.17969 z M 80.75 141.00977 C 80.34 140.99977 80 141.45 80 142 C 80 142.55 82.59 144.53992 85.75 146.41992 C 88.91 148.29992 91.84 149.64992 92.25 149.41992 C 92.66 149.18992 92.77 148.55 92.5 148 C 92.22 147.45 89.64 145.64977 86.75 144.00977 C 83.86 142.35977 81.16 141.00977 80.75 141.00977 z M 419.25 152.03906 C 420.21 152.01906 421.9 152.9 423 154 C 424.24 155.24 425 157.33 425 159.5 C 425 161.42 424.32 164.35 423.5 166 C 422.67 167.65 420.54 170.1107 418.75 171.4707 C 416.96 172.8307 413.14 174.8507 410.25 175.9707 C 407.36 177.0907 404.44 178.00953 403.75 178.01953 C 402.8 178.02953 402.70031 176.74953 403.32031 172.76953 C 403.76031 169.86953 405.03086 165.47 406.13086 163 C 407.22086 160.52 408.69086 157.63031 409.38086 156.57031 C 410.08086 155.50031 412.19031 154.05937 414.07031 153.35938 C 415.96031 152.64938 418.29 152.05906 419.25 152.03906 z "
       id="Path 8"
       style="fill:#7a233c;fill-opacity:1" />
    <path
       id="Path 10"
       class="shp6"
       d="M116.91 161.51C116.13 162.38 114.94 163.07 114.25 163.04C113.56 163.02 113 163.79 112.99 164.75C112.99 165.71 118.01 180.45 124.15 197.5C130.29 214.55 136.07 231.2 137 234.5C138.58 240.1 138.9 240.52 141.85 240.75C144.01 240.92 145.29 240.45 145.92 239.25C146.6 237.97 144.23 229.87 137.07 209C131.69 193.32 125.76 176.03 123.9 170.57C122.03 165.1 120.01 160.48 119.41 160.28C118.81 160.09 117.68 160.64 116.91 161.51Z" />
  </g>
</svg>
