<?xml version="1.0" encoding="UTF-8" standalone="no"?>
<svg
   xmlns:dc="http://purl.org/dc/elements/1.1/"
   xmlns:cc="http://creativecommons.org/ns#"
   xmlns:rdf="http://www.w3.org/1999/02/22-rdf-syntax-ns#"
   xmlns:svg="http://www.w3.org/2000/svg"
   xmlns="http://www.w3.org/2000/svg"
   xmlns:sodipodi="http://sodipodi.sourceforge.net/DTD/sodipodi-0.dtd"
   xmlns:inkscape="http://www.inkscape.org/namespaces/inkscape"
   viewBox="0 0 200 260"
   width="180"
   height="240"
   version="1.1"
   id="svg482"
   sodipodi:docname="lolipop.svg"
   inkscape:version="0.92.5 (2060ec1f9f, 2020-04-08)">
  <metadata
     id="metadata488">
    <rdf:RDF>
      <cc:Work
         rdf:about="">
        <dc:format>image/svg+xml</dc:format>
        <dc:type
           rdf:resource="http://purl.org/dc/dcmitype/StillImage" />
        <dc:title></dc:title>
      </cc:Work>
    </rdf:RDF>
  </metadata>
  <defs
     id="defs486" />
  <sodipodi:namedview
     pagecolor="#ffffff"
     bordercolor="#666666"
     borderopacity="1"
     objecttolerance="10"
     gridtolerance="10"
     guidetolerance="10"
     inkscape:pageopacity="0"
     inkscape:pageshadow="2"
     inkscape:window-width="1920"
     inkscape:window-height="1080"
     id="namedview484"
     showgrid="false"
     inkscape:zoom="1.5255998"
     inkscape:cx="282.17396"
     inkscape:cy="103.63286"
     inkscape:window-x="0"
     inkscape:window-y="0"
     inkscape:window-maximized="1"
     inkscape:current-layer="svg482" />
  <style
     id="style468">
		tspan { white-space:pre }
		.shp0 { fill: #ffffff } 
		.shp1 { fill: #7a233c } 
		.shp2 { fill: #f05d8c } 
		.shp3 { fill: #dc386d } 
		.shp4 { fill: #a9d6af } 
		.shp5 { fill: #7bb082 } 
		.shp6 { fill: #e8d4c3 } 
	</style>
  <g
     id="Background">
    <path
       id="Path 1"
       class="shp1"
       d="M79.5 33.45C76.2 34.16 70.8 35.83 67.5 37.16C64.2 38.48 58.82 41.35 55.54 43.53C52.26 45.71 47.34 49.75 44.61 52.5C41.88 55.25 38.18 59.75 36.37 62.5C34.41 65.5 31.85 71.89 29.97 78.5C27.37 87.63 26.84 91.29 26.82 100C26.81 106.66 27.42 112.88 28.48 117C29.41 120.57 31.46 126.65 33.05 130.5C34.63 134.35 37.08 138.62 38.49 140C40.5 141.96 41.64 142.35 43.78 141.8C46.14 141.19 47.16 141.77 51.5 146.2C54.25 149 58.52 152.59 61 154.18C63.47 155.77 68.65 158.01 72.5 159.16C76.78 160.44 82.61 161.3 87.5 161.38C91.9 161.45 98.09 161.16 101.25 160.75C104.92 160.27 107 160.36 107 161C107 161.55 110.64 172.24 115.08 184.75C119.53 197.26 125.38 213.69 128.08 221.25C130.79 228.81 133 236.35 133 238C133 239.87 133.94 241.94 135.5 243.5C137.12 245.12 139.15 246.01 141.25 246.03C143.04 246.05 145.74 245.15 147.25 244.03C148.76 242.92 150.26 240.99 150.57 239.75C150.89 238.51 150.16 234.57 148.96 231C147.75 227.42 142.36 211.67 136.97 196C131.58 180.32 126.01 164.46 124.59 160.75L122 154C129.36 150.29 134.31 147.14 137.75 144.61C141.19 142.07 145.85 137.64 148.1 134.75C150.36 131.86 153.39 126.94 154.85 123.8C156.33 120.61 158.49 117.64 159.75 117.05C161.06 116.44 162.47 114.44 163.12 112.25C164.03 109.22 163.91 107.35 162.52 102.5C161.11 97.58 160.99 95.42 161.83 90.5C162.52 86.48 162.53 83.02 161.86 80C161.31 77.52 159.22 72.35 157.21 68.5C154.76 63.81 150.9 58.85 145.52 53.48C138.83 46.78 135.76 44.59 127 40.24C121.18 37.36 113.38 34.37 109.5 33.53C105.65 32.71 98.67 32.06 94 32.1C89.32 32.13 82.8 32.74 79.5 33.45Z" />
    <path
       id="Path 2"
       class="shp2"
       d="m 87,37.15 c -4.13,0.5 -10.65,2.01 -14.5,3.38 -3.85,1.36 -9.41,3.94 -12.35,5.73 -2.95,1.78 -8.3,5.94 -11.9,9.24 -3.6,3.3 -7.78,7.8 -9.3,10 -1.53,2.2 -3.81,7.6 -5.07,12 -1.89,6.54 -2.32,10.46 -2.34,21.5 -0.03,10.23 0.4,14.96 1.77,19.5 0.99,3.3 3.24,9.04 5,12.75 1.75,3.71 3.64,6.6 4.19,6.41 0.55,-0.18 1.34,-2.32 1.77,-4.75 0.42,-2.42 1.77,-5.43 3,-6.69 1.43,-1.46 3.4,-2.26 5.48,-2.25 2.37,0.02 3.8,0.78 5.28,2.78 1.12,1.51 2.02,4.21 2,6 -0.01,1.79 0.42,4.15 0.97,5.25 0.55,1.1 1.79,2.02 2.75,2.04 0.96,0.03 2.31,-0.65 3,-1.5 1,-1.24 0.96,-2.82 -0.25,-8.04 -1.07,-4.62 -1.22,-7.29 -0.52,-9.25 0.53,-1.51 2.11,-3.31 3.5,-4 1.38,-0.69 3.08,-1.23 3.77,-1.21 0.69,0.03 1.79,-0.53 2.45,-1.25 0.94,-1.01 0.88,-2.39 -0.26,-6.29 -0.81,-2.75 -1.45,-7.7 -1.43,-11 0.02,-3.84 0.77,-7.62 2.08,-10.5 1.12,-2.48 2.8,-5.34 3.73,-6.36 0.92,-1.02 3.25,-2.65 5.18,-3.62 1.92,-0.98 4.85,-2.08 6.5,-2.46 1.65,-0.38 5.02,-0.16 7.5,0.48 2.96,0.77 5.78,2.5 8.25,5.06 2.06,2.15 4.31,5.71 5,7.92 0.69,2.22 1.06451,3.623727 1.25,4.27 0.0769,0.525915 3.57387,0.150635 5.91387,-1.409365 2.34,-1.57 7.42063,-6.320635 9.19063,-8.470635 1.77,-2.15 2.93065,-6.10387 3.59065,-8.57387 0.67,-2.54 0.95,-8.47709 0.65,-12.14709 -0.31,-3.84 0.0106,-7.917105 -1.67936,-11.957105 C 128.90579,44.361935 124.85,42.52 122.5,41.54 120.85,40.84 116.12,39.57 112,38.7 107.87,37.83 102.25,36.93 99.5,36.69 96.75,36.45 91.12,36.66 87,37.15 Z"
       inkscape:connector-curvature="0"
       style="fill:#f05d8c"
       sodipodi:nodetypes="cccscccccccccccsccccccccccccscccccscccccsc" />
    <path
       id="Path 3"
       class="shp1"
       d="M93 42.5C93 42.77 94.8 44.8 97 47C99.2 49.2 101.22 50.55 101.5 50C101.77 49.45 100.65 47.42 99 45.5C97.35 43.57 95.32 42 94.5 42C93.67 42 93 42.22 93 42.5ZM104.04 44.25C104.07 44.94 105.85 47.52 108 50C110.15 52.47 112.27 54.17 112.71 53.78C113.14 53.38 112.65 51.8 111.62 50.28C110.58 48.75 108.78 46.48 107.62 45.22C106.45 43.97 105.16 42.96 104.75 42.97C104.34 42.99 104.02 43.56 104.04 44.25ZM85.01 44.75C85.01 45.16 86.36 46.29 88.01 47.25C89.65 48.21 91.23 48.66 91.5 48.25C91.78 47.84 91.22 46.7 90.25 45.72C89.29 44.74 87.71 43.95 86.75 43.97C85.79 43.99 85 44.34 85.01 44.75Z" />
    <path
       id="Path 4"
       class="shp3"
       d="M 127.66145,47.647581 C 128.01887,49.748549 129.86,53.52 130.63,56 c 0.77,2.47 1.38,6.97 1.37,10 -0.02,3.02 -0.57,7.3 -1.23,9.5 -0.73,2.43 -3.17,5.98 -6.24,9.06 -2.76,2.78 -6.38,5.66 -8.03,6.39 l -3,1.34 c 1.22,9.46 2.02,14.46 2.58,17.21 0.56,2.75 2.01,6.02 3.22,7.28 1.42,1.46 3.36,2.26 5.45,2.25 1.79,-0.02 4.15,-0.48 5.25,-1.03 1.6,-0.8 2,-2 2,-6 0,-2.75 0.66,-6.69 1.47,-8.75 0.9,-2.27 2.58,-4.26 4.25,-5.04 2,-0.93 3.62,-1.02 5.78,-0.31 1.65,0.55 3.7,2.03 4.56,3.29 0.86,1.27 2.32,4.45 3.25,7.06 1.4,3.95 2.11,4.75 4.19,4.75 1.74,0 2.68,-0.68 3.11,-2.25 0.34,-1.24 -0.12,-4.5 -1.01,-7.25 -0.89,-2.75 -1.62,-6.35 -1.61,-8 0.01,-1.65 0.49,-4.8 1.07,-7 0.84,-3.17 0.71,-5.14 -0.62,-9.5 -0.91,-3.03 -3.23,-7.98 -5.15,-11 -1.92,-3.03 -5.81,-7.91 -8.64,-10.86 -2.83,-2.95 -7.06015,-7.426006 -9.9,-9.25 -2.91726,-1.873711 -4.53404,-3.357423 -5.09404,-3.357423 -0.58,0 -0.19709,-0.9195 0.005,3.115004 z"
       inkscape:connector-curvature="0"
       style="fill:#dc386d"
       sodipodi:nodetypes="cccccccsccsscccccscsscccsssc" />
    <path
       id="Path 6"
       class="shp4"
       d="m 90.5,84.41 c -2.75,1.34 -6.17,3.93 -7.59,5.76 -1.43,1.83 -3.12,4.34 -3.75,5.58 -0.9,1.75 -0.83,3.58 0.34,8.25 0.82,3.3 1.5,7.24 1.5,8.75 -0.01,1.51 -0.91,4.21 -2,6 -1.1,1.79 -3.37,4.04 -5.05,5 -2.65,1.52 -2.97,2.15 -2.43,4.75 0.35,1.65 0.88,4.57 1.17,6.5 0.43,2.78 0,4.17 -2.07,6.75 -1.91,2.36 -3.44,3.25 -5.62,3.25 -1.65,0 -3.9,-0.45 -5,-1 -1.1,-0.55 -2.68,-2.35 -3.5,-4 -0.83,-1.65 -1.5,-4.13 -1.5,-5.5 0,-1.38 -0.58,-2.5 -1.3,-2.5 -0.72,0 -1.85,0.56 -2.52,1.25 -0.67,0.69 -1.21,2.26 -1.2,3.5 0.01,1.47 2.01,4.01 5.77,7.34 3.16,2.8 8.22,6.23 11.25,7.62 3.02,1.4 7.91,3.05 10.87,3.66 l 7.503661,1.14448 c 4.49,-5.43 4.471938,-7.9773 4.461938,-8.3873 C 89.835599,147.71718 86.97,146.87 84.5,145.5 82.02,144.12 80,142.55 80,142 c 0,-0.55 0.34,-0.99 0.75,-0.97 0.41,0.02 2.93,1.26 5.6,2.75 4.81,2.69 4.87,2.7 6.27,0.72 1.22,-1.73 3.65805,-0.62517 2.34805,-1.27517 C 94.13805,142.81483 91,140.55 91,140 c 0,-0.55 3,0.18 4.24,0.5 1.96,0.5 1.431115,-0.99413 3.791115,-6.05413 1.499995,-3.21 3.409995,-9.09587 4.239995,-12.94587 0.83,-3.85 1.75175,-10.93413 1.76175,-15.88413 0.01,-4.95 -0.47,-11.699996 -1.08,-14.999996 -0.6,-3.3 -0.86029,-6.204264 -1.49029,-6.914264 C 101.82257,82.98161 98.6,81.93 97.5,81.94 c -1.1,0.02 -4.25,1.13 -7,2.47 z"
       inkscape:connector-curvature="0"
       style="fill:#a9d6af"
       sodipodi:nodetypes="scccccccccsscssscccccccsscccsccsscccs" />
    <path
       id="Path 7"
       class="shp5"
       d="m 102.69,89.25 c 0.7,3.44 1.27,10.52 1.27,15.75 0,5.22 -0.67,12.65 -1.49,16.5 -0.82,3.85 -2.78,9.7 -4.36,13 l -2.87,6 c 8.34,3.49 10.76,4.95 10.76,5.5 0,0.55 -0.68,1 -1.5,1 -0.83,0 -3.52,-1.01 -5.99,-2.25 -4.47,-2.24 -2.732928,-5.15133 -5.92,-0.25 -0.87,1.22 -2.319783,1.30834 -2.319783,1.30834 0,0 4.038966,3.51375 1.969783,3.39166 -1.887388,-0.0907 -1.631768,-1.52882 -2.181768,-1.80882 -0.55,-0.28 -1.798232,3.08882 -3.308232,5.04882 -2.378611,4.49909 -2.435158,3.97762 -0.942063,4.14309 0.96,0.37 5.632063,0.23691 10.442063,-0.41309 4.81,-0.64 11.56,-2.13 15,-3.31 3.44,-1.18 8.95,-3.49 12.25,-5.14 3.3,-1.65 8.47,-4.89 11.5,-7.2 3.02,-2.31 7.23,-6.18 9.34,-8.61 2.11,-2.43 4.7,-6.1 5.75,-8.16 1.05,-2.06 1.93,-4.31 1.95,-5 0.03,-0.69 -0.72,-1.93 -1.65,-2.75 -0.94,-0.83 -2.31,-2.96 -3.04,-4.75 -0.78,-1.87 -2.31,-3.5 -3.6,-3.83 -1.24,-0.33 -3.14,-0.44 -4.22,-0.25 -1.48,0.24 -2.26,1.61 -3.07,5.33 -0.6,2.75 -1.4,5.56 -1.78,6.25 -0.37,0.69 -2.26,1.92 -4.18,2.75 -1.93,0.82 -4.63,1.5 -6,1.5 -1.38,0 -3.74,-0.61 -5.25,-1.36 -1.51,-0.75 -3.76,-3 -5,-5 -1.43,-2.32 -2.8,-7.18 -3.77,-13.39 -0.83,-5.36 -2.18,-11.66 -3,-14 -0.81,-2.34 -2.38,-4.7 -3.48,-5.25 -1.1,-0.55 -3.39999,-1.245805 -3.55999,-1.245805 -0.16,0 1.54999,3.055805 2.24999,6.495805 z"
       inkscape:connector-curvature="0"
       style="fill:#7bb082"
       sodipodi:nodetypes="sssccssccccscccsscssccccccccsscccsss" />
    <path
       id="Path 8"
       class="shp1"
       d="m 91.16,139.89 c -0.09,0.61 2.54,2.46 5.84,4.11 3.3,1.65 6.67,3 7.5,3 0.82,0 1.58,-0.39 1.69,-0.87 0.1,-0.48 -2.71,-2.1 -6.25,-3.6 -3.54,-1.51 -6.93,-2.96 -7.53,-3.24 -0.6,-0.28 -1.17,-0.01 -1.25,0.6 z m 16.1,-0.14 c 0.25,0.41 1.87,1.31 3.6,2 2.02,0.81 3.32,0.89 3.64,0.25 0.27,-0.55 -0.63,-1.45 -2,-2 -1.38,-0.55 -3.22,-1 -4.1,-1 -0.88,0 -1.4,0.34 -1.14,0.75 z M 80,142 c 0,0.55 2.59,2.54 5.75,4.42 3.16,1.88 6.09,3.23 6.5,3 0.41,-0.23 0.52,-0.87 0.25,-1.42 -0.28,-0.55 -2.86,-2.35 -5.75,-3.99 -2.89,-1.65 -5.59,-3 -6,-3 C 80.34,141 80,141.45 80,142 Z"
       inkscape:connector-curvature="0"
       style="fill:#7a233c"
       sodipodi:nodetypes="cssccscccccscssscccs" />
    <path
       id="Path 10"
       class="shp6"
       d="M116.91 161.51C116.13 162.38 114.94 163.07 114.25 163.04C113.56 163.02 113 163.79 112.99 164.75C112.99 165.71 118.01 180.45 124.15 197.5C130.29 214.55 136.07 231.2 137 234.5C138.58 240.1 138.9 240.52 141.85 240.75C144.01 240.92 145.29 240.45 145.92 239.25C146.6 237.97 144.23 229.87 137.07 209C131.69 193.32 125.76 176.03 123.9 170.57C122.03 165.1 120.01 160.48 119.41 160.28C118.81 160.09 117.68 160.64 116.91 161.51Z" />
  </g>
</svg>
