<?xml version="1.0" encoding="UTF-8" standalone="no"?>
<svg
   xmlns:dc="http://purl.org/dc/elements/1.1/"
   xmlns:cc="http://creativecommons.org/ns#"
   xmlns:rdf="http://www.w3.org/1999/02/22-rdf-syntax-ns#"
   xmlns:svg="http://www.w3.org/2000/svg"
   xmlns="http://www.w3.org/2000/svg"
   viewBox="0 0 198.66667 93.333336"
   height="93.333336"
   width="198.66667"
   xml:space="preserve"
   id="svg2"
   version="1.1"><metadata
     id="metadata8"><rdf:RDF><cc:Work
         rdf:about=""><dc:format>image/svg+xml</dc:format><dc:type
           rdf:resource="http://purl.org/dc/dcmitype/StillImage" /><dc:title></dc:title></cc:Work></rdf:RDF></metadata><defs
     id="defs6" /><g
     transform="matrix(1.3333333,0,0,-1.3333333,0,93.333333)"
     id="g10"><g
       transform="scale(0.1)"
       id="g12"><path
         id="path14"
         style="fill:#502114;fill-opacity:1;fill-rule:nonzero;stroke:none"
         d="m 617.473,80.7695 20.757,-9.4414 c 0,0 46.747,89.1489 95.625,178.8439 5.833,53.351 12.665,111.359 18.606,149.973 C 714.289,320.941 638.359,132.828 617.473,80.7695" /><path
         id="path16"
         style="fill:#502114;fill-opacity:1;fill-rule:nonzero;stroke:none"
         d="m 1129.93,498.457 -33.14,45.898 c 0,0 -26.09,-22.164 -54.4,-46.152 l 43.28,-56.176 44.26,56.43" /><path
         id="path18"
         style="fill:#502114;fill-opacity:1;fill-rule:nonzero;stroke:none"
         d="m 1085.68,442.02 44.25,56.425 v 0.012 l -44.26,-56.43 0.01,-0.007" /><path
         id="path20"
         style="fill:#502114;fill-opacity:1;fill-rule:nonzero;stroke:none"
         d="m 336.867,291.07 c -0.004,-0.011 -0.008,-0.019 -0.008,-0.027 4.981,-25.215 13.055,-58.547 21.254,-90.574 0,0.008 0.004,0.011 0.008,0.019 -8.203,32.039 -16.277,65.375 -21.254,90.582" /><path
         id="path22"
         style="fill:#502114;fill-opacity:1;fill-rule:nonzero;stroke:none"
         d="m 512.035,112.609 -0.023,0.012 0.023,-0.012 c -0.019,0.11 -7.164,44.668 -10.039,60.153 -0.008,-0.012 -0.008,-0.028 -0.012,-0.039 2.887,-15.555 10.028,-60.098 10.028,-60.098 0,0 -7.141,44.543 -10.028,60.098 -6.769,-22.817 -22.261,-75.7894 -29.48,-100.4808 l 19.828,-8.6406 c 0,0 9.422,22.9726 20.059,48.8434 l -0.356,0.16 v 0.004" /><path
         id="path24"
         style="fill:#502114;fill-opacity:1;fill-rule:nonzero;stroke:none"
         d="m 350.75,354.609 86.379,25.875 c 0,0 4.332,-24.156 9.508,-55.082 l 18.984,57.93 101.074,32.082 41.672,161.285 -88.75,-52.25 -14.082,-89.57 -154.785,-80.27" /><path
         id="path26"
         style="fill:#502114;fill-opacity:1;fill-rule:nonzero;stroke:none"
         d="m 606.922,402.582 c -10.25,-3.09 -19.293,-5.812 -26.649,-8.031 1.954,-10.942 4.407,-24.824 7.024,-39.856 6.531,16.594 13.648,33.758 19.625,47.887" /><path
         id="path28"
         style="fill:#502114;fill-opacity:1;fill-rule:nonzero;stroke:none"
         d="m 296.02,52.3945 20.109,-6.5625 c 0,0 21.113,80.938 41.984,154.637 -8.199,32.027 -16.273,65.359 -21.254,90.574 C 323.18,228.047 302.242,93.1367 296.02,52.3945" /><path
         id="path30"
         style="fill:#502114;fill-opacity:1;fill-rule:nonzero;stroke:none"
         d="m 752.461,400.145 c -5.941,-38.618 -12.773,-96.622 -18.606,-149.973 0.012,0.019 0.02,0.039 0.032,0.058 5.84,53.379 12.672,111.403 18.613,149.997 -0.012,-0.028 -0.023,-0.055 -0.039,-0.082" /><path
         id="path32"
         style="fill:#502114;fill-opacity:1;fill-rule:nonzero;stroke:none"
         d="m 1005.87,545.602 0.01,-0.008 c 0,0 0,0 0,0.004 l 4.63,-6.016 20.07,69.652 -99.717,-27.492 -22.281,-130.609 c 32.496,31.422 64.922,62.91 97.288,94.469" /><path
         id="path34"
         style="fill:#502114;fill-opacity:1;fill-rule:nonzero;stroke:none"
         d="m 221.738,282.363 -0.027,-0.011 c -1.824,-9.887 -3.816,-21.817 -5.883,-34.903 l 0.024,0.012 c 2.066,13.09 4.058,25.023 5.886,34.902" /><path
         id="path36"
         style="fill:#502114;fill-opacity:1;fill-rule:nonzero;stroke:none"
         d="m 908.582,451.133 -0.004,-0.02 c 32.5,31.426 64.93,62.918 97.302,94.481 l -0.01,0.008 c -32.366,-31.559 -64.792,-63.047 -97.288,-94.469" /><path
         id="path38"
         style="fill:#502114;fill-opacity:1;fill-rule:nonzero;stroke:none"
         d="m 140.852,232.699 -9.829,-33.402 84.809,48.152 c 2.063,13.086 4.055,25.016 5.883,34.903 l -80.863,-49.653" /><path
         id="path40"
         style="fill:#502114;fill-opacity:1;fill-rule:nonzero;stroke:none"
         d="m 1080.31,193.379 c 6.29,-7.973 14.81,-18.715 24.36,-30.727 l 0.01,0.008 c -9.55,12.012 -18.07,22.75 -24.36,30.727 l -0.01,-0.008" /><path
         id="path42"
         style="fill:#502114;fill-opacity:1;fill-rule:nonzero;stroke:none"
         d="m 863.066,77.6133 30.977,-12.457 c 0,0 5.52,26.6953 10.984,52.9097 l -34.035,41.993 c -1.617,-15.61 -5.679,-58.559 -7.926,-82.4457" /><path
         id="path44"
         style="fill:#502114;fill-opacity:1;fill-rule:nonzero;stroke:none"
         d="M 981.551,73.1094 996.836,52.7891 1104.67,162.656 c -9.55,12.008 -18.07,22.754 -24.36,30.727 L 981.551,73.1094" /><path
         id="path46"
         style="fill:#502114;fill-opacity:1;fill-rule:nonzero;stroke:none"
         d="m 870.992,160.074 v -0.011 l 34.035,-41.997 0.004,0.012 -34.039,41.996" /><path
         id="path48"
         style="fill:#502114;fill-opacity:1;fill-rule:nonzero;stroke:none"
         d="m 1461.73,499.664 -153,91.524 -41.15,-44 84.63,-52.645 v 0 l 0.01,-0.004 -161.2,-169.426 140.96,-130.437 v -0.008 L 1222.16,82.3594 c 11.64,-15.5938 19.54,-26.1602 19.54,-26.1602 l 165.05,142.4098 -137.21,129.274 192.19,171.781" /><path
         id="path50"
         style="fill:#502114;fill-opacity:1;fill-rule:nonzero;stroke:none"
         d="m 901.277,403.598 74.399,-88.035 -74.399,88.035 c -9.601,-65.332 -18.023,-130.836 -25.273,-196.473 33.383,37.719 66.047,71.563 99.68,108.445 l -74.407,88.028" /><path
         id="path52"
         style="fill:#ffffff;fill-opacity:1;fill-rule:nonzero;stroke:none"
         d="m 1191.02,325.113 v 0 l 161.2,169.422 -0.01,0.008 -84.63,52.645 -66.81,41.566 -70.84,-90.305 -44.25,-56.429 -0.01,0.007 -43.28,56.18 -31.89,41.379 -4.62,6.012 v 0 c -32.376,-31.563 -64.806,-63.055 -97.302,-94.485 l 0.004,0.02 22.281,130.609 5.258,30.828 -0.004,-0.004 -156.637,-43.742 -14.726,-92.027 c -13.371,-4.402 -144.172,-42.449 -144.172,-42.449 0,0 -5.852,-13.285 -13.66,-31.762 -5.977,-14.133 -13.098,-31.297 -19.625,-47.891 -2.617,15.035 -5.074,28.914 -7.024,39.86 -2.585,14.48 -4.281,23.812 -4.281,23.812 l -9.297,-2.949 -101.074,-32.082 -18.984,-57.934 c -5.176,30.926 -9.508,55.086 -9.508,55.086 l -86.379,-25.875 154.781,80.266 14.086,89.578 9.981,63.477 -417.149,-264.469 -22.5935,-122.078 50.9965,31.312 80.863,49.653 0.023,0.011 c -1.828,-9.879 -3.82,-21.812 -5.883,-34.902 C 204.828,177.496 191.82,74.4141 191.742,73.7891 c 0,-0.0039 0,-0.0196 0,-0.0196 L 294.215,40.5 c 0,0 0.648,4.3203 1.805,11.8945 6.226,40.7383 27.16,175.6485 40.839,238.6445 0,0.012 0.004,0.02 0.008,0.027 4.977,-25.207 13.051,-58.543 21.254,-90.582 13.953,-54.496 28.285,-105.2106 28.438,-105.7457 l 0.004,-0.0195 82.113,-35.586 c 0,0 1.472,5.0508 3.828,13.1094 7.219,24.6875 22.711,77.6638 29.48,100.4768 0.004,0.015 0.008,0.027 0.012,0.043 2.875,-15.489 10.02,-60.047 10.039,-60.157 v -0.003 l 0.356,-0.164 99.652,-45.2349 c 0,0 1.953,4.8985 5.43,13.5625 20.886,52.0584 96.816,240.1724 134.988,319.3754 0.012,0.027 0.027,0.05 0.039,0.082 -5.941,-38.598 -12.773,-96.621 -18.613,-149.996 -7.621,-69.684 -13.543,-131.442 -13.571,-131.704 v -0.007 L 861.508,61.0273 c 0,0 0.625,6.6407 1.558,16.5782 2.247,23.8905 6.309,66.8395 7.926,82.4495 0,0.004 0,0.008 0,0.011 l 34.039,-41.992 56.34,-69.5154 0.012,-0.0117 20.168,24.5625 98.759,120.2656 0.01,0.008 c 6.28,-7.973 14.81,-18.715 24.36,-30.727 36.4,-45.797 87.82,-110.1052 88.05,-110.3943 v -0.0078 l 29.43,30.0977 109.82,112.3084 v 0.008 l -140.96,130.445" /><path
         id="path54"
         style="fill:#ffffff;fill-opacity:1;fill-rule:nonzero;stroke:none"
         d="m 281.457,340.301 42.176,-13.93 -0.703,-2.984 C 303.668,241.094 291.176,161.055 277.984,72.457 l -0.586,-3.9179 c 0,0 -43.527,13.4961 -57.183,17.7382 -2.539,0.7891 -4.047,1.2579 -4.047,1.2618 l 7.359,55.4059 c 5.246,40.243 10.328,79.102 17.184,118.629 3.68,21.211 7.859,42.61 12.871,64.528 L 149.523,262.184 120.555,244.391 132.484,308.867 502.27,542.602 497.137,511.219 486.82,448.113 281.457,340.301" /><path
         id="path56"
         style="fill:#ffffff;fill-opacity:1;fill-rule:nonzero;stroke:none"
         d="m 793.359,513.168 c 1.082,9.641 5.657,36.477 5.657,36.477 l 107.828,28.832 c 0,0 -0.207,-1.289 -0.571,-3.516 -2.449,-15.004 -11.898,-72.93 -11.886,-72.93 0,0 -25.617,-5.66 -51.676,-11.414 -26.957,-5.953 -54.379,-12.012 -54.387,-12.019 -0.004,0 4.117,26.312 5.035,34.57" /><path
         id="path58"
         style="fill:#ffffff;fill-opacity:1;fill-rule:nonzero;stroke:none"
         d="M 508.574,263.383 C 494.457,222.898 480.328,174.273 467.738,130.91 l -12.398,-42.4334 -43.469,18.8324 -6.074,2.632 c 0,0 -12.727,48.727 -18.641,70.192 -5.758,20.902 -11.367,41.269 -16.715,62.988 -6.253,25.387 -12.144,52.633 -17.492,84.77 l -0.414,2.507 68.051,20.379 c 0,0 15.191,-95.527 19.129,-119.675 l 43.828,133.046 75.973,24.114 c 0,0 12.949,-71.379 20.589,-121.668 17.118,55.203 48.629,128.683 55.563,144.66 0.887,2.043 1.375,3.156 1.375,3.156 l 115.473,33.676 -0.868,-1.836 -2.101,-4.449 C 699.07,342.098 640.031,199.328 601.613,98.9688 l -1.062,-2.7696 -59.524,27.0078 -8.48,3.852 -0.234,1.535 c -0.731,4.824 -2.114,12.914 -3.875,22.84 -6.239,35.23 -17.137,93.679 -19.864,111.949" /><path
         id="path60"
         style="fill:#ffffff;fill-opacity:1;fill-rule:nonzero;stroke:none"
         d="m 843.246,95.707 -0.34,-3.6953 -87.324,35.5663 -11.316,4.61 0.164,2.042 c 4.797,58.883 10.246,112.317 17.093,166.309 6.231,49.078 13.61,98.617 22.719,153.133 0,0 0.317,1.883 0.301,1.883 l 106.754,22.008 -0.656,-3.977 C 872.133,360.793 855.305,226.594 843.246,95.707" /><path
         id="path62"
         style="fill:#502114;fill-opacity:1;fill-rule:nonzero;stroke:none"
         d="m 901.277,403.598 74.407,-88.028 c -33.633,-36.882 -66.297,-70.726 -99.68,-108.445 7.25,65.637 15.672,131.141 25.273,196.473" /><path
         id="path64"
         style="fill:#ffffff;fill-opacity:1;fill-rule:nonzero;stroke:none"
         d="m 1121.4,179.703 c -15.06,18.914 -29.44,37.352 -39.81,51.449 L 967.34,92.0117 l -5.231,-6.3672 -50.75,62.6095 -25.582,31.555 c 0,0 82.102,88.808 122.623,134.074 l -92.298,109.222 84.778,83.04 2.66,2.613 20.26,-26.297 62.32,-80.895 59.24,75.524 61.08,77.871 0.46,0.594 43.31,-26.942 64.53,-40.14 -0.73,-0.774 L 1157.17,322.871 1297.89,192.668 1208.25,101 1195.85,88.3125 c 0,0 -39.12,47.0235 -74.45,91.3905" /><path
         id="path66"
         style="fill:#d01d29;fill-opacity:1;fill-rule:nonzero;stroke:none"
         d="m 891.293,477.566 -106.75,-22.011 c 0.016,0 -0.305,-1.883 -0.305,-1.883 C 775.133,399.156 767.754,349.617 761.523,300.539 754.676,246.547 749.227,193.113 744.43,134.234 l -0.164,-2.046 11.316,-4.606 87.324,-35.5703 0.336,3.6953 c 12.059,130.887 28.891,265.086 47.395,377.879 l 0.656,3.98" /><path
         id="path68"
         style="fill:#d01d29;fill-opacity:1;fill-rule:nonzero;stroke:none"
         d="m 751.648,446.246 0.868,1.836 -115.473,-33.672 c 0,0 -0.488,-1.113 -1.375,-3.16 -6.934,-15.977 -38.445,-89.457 -55.559,-144.66 -7.64,50.289 -20.589,121.668 -20.589,121.668 l -75.977,-24.11 -43.828,-133.05 c -3.938,24.148 -19.125,119.679 -19.125,119.679 l -68.051,-20.382 0.414,-2.508 c 5.348,-32.137 11.235,-59.379 17.488,-84.766 5.348,-21.723 10.957,-42.086 16.719,-62.988 5.914,-21.469 18.637,-70.195 18.637,-70.195 l 6.078,-2.629 43.465,-18.8324 12.398,42.4294 c 12.59,43.364 26.719,91.992 40.84,132.477 2.723,-18.274 13.625,-76.723 19.863,-111.957 1.758,-9.926 3.145,-18.016 3.875,-22.84 l 0.235,-1.535 8.48,-3.852 59.524,-27.0076 1.058,2.7734 C 640.039,199.324 699.07,342.09 749.551,441.793 l 2.097,4.453" /><path
         id="path70"
         style="fill:#d01d29;fill-opacity:1;fill-rule:nonzero;stroke:none"
         d="m 894.387,502.031 c -0.016,0 9.437,57.926 11.886,72.93 0.364,2.227 0.571,3.516 0.571,3.516 L 799.012,549.645 c 0,0 -4.571,-26.836 -5.657,-36.477 -0.914,-8.258 -5.035,-34.57 -5.035,-34.57 0.008,0.007 27.43,6.066 54.387,12.019 26.063,5.754 51.68,11.414 51.68,11.414" /><path
         id="path72"
         style="fill:#d01d29;fill-opacity:1;fill-rule:nonzero;stroke:none"
         d="m 1314.73,488.469 -64.53,40.144 -43.3,26.942 -0.46,-0.598 -61.08,-77.867 -59.24,-75.524 -62.32,80.895 -20.26,26.293 -2.67,-2.609 -84.768,-83.043 92.298,-109.219 C 967.879,268.617 885.777,179.809 885.777,179.809 l 25.578,-31.555 50.754,-62.6134 5.227,6.3672 114.254,139.1402 c 10.37,-14.093 24.74,-32.531 39.81,-51.449 35.33,-44.363 74.45,-91.3865 74.45,-91.3865 l 12.4,12.6875 89.63,91.664 -140.71,130.207 156.84,164.828 0.72,0.77" /><path
         id="path74"
         style="fill:#d01d29;fill-opacity:1;fill-rule:nonzero;stroke:none"
         d="m 1265.39,609.148 c 0.86,0.176 1.74,0.266 2.65,0.266 7.15,0 13.05,-5.855 13.05,-13.84 0,-8.078 -5.9,-13.949 -13.05,-13.949 -0.91,0 -1.79,0.094 -2.65,0.273 -5.97,1.239 -10.41,6.61 -10.4,13.676 -0.01,6.989 4.43,12.344 10.4,13.574 z m 2.64,-31.3 c 9.37,0 17.77,6.945 17.77,17.726 0,10.68 -8.4,17.625 -17.77,17.625 -9.39,0 -17.78,-6.937 -17.78,-17.625 0,-10.781 8.39,-17.726 17.78,-17.726" /><path
         id="path76"
         style="fill:#d01d29;fill-opacity:1;fill-rule:nonzero;stroke:none"
         d="m 1265.39,581.898 c -5.97,1.239 -10.4,6.61 -10.4,13.676 -0.01,-7.066 4.43,-12.437 10.4,-13.676" /><path
         id="path78"
         style="fill:#d01d29;fill-opacity:1;fill-rule:nonzero;stroke:none"
         d="m 1265.39,609.148 c -5.97,-1.23 -10.41,-6.585 -10.4,-13.574 0,6.989 4.43,12.344 10.4,13.574" /><path
         id="path80"
         style="fill:#d01d29;fill-opacity:1;fill-rule:nonzero;stroke:none"
         d="m 1276.03,599.617 v 0 c 0,4.278 -2.73,5.824 -7.58,5.824 h -7.29 v 0 h 7.29 c 4.85,0 7.58,-1.546 7.58,-5.824" /><path
         id="path82"
         style="fill:#d01d29;fill-opacity:1;fill-rule:nonzero;stroke:none"
         d="m 1276.13,585.699 v 0 l -5.19,8.66 c 0,0 0,0 0,0 l 5.19,-8.66" /><path
         id="path84"
         style="fill:#d01d29;fill-opacity:1;fill-rule:nonzero;stroke:none"
         d="m 1261.16,585.699 h 3.82 v 0 h -3.82 v 0" /><path
         id="path86"
         style="fill:#d01d29;fill-opacity:1;fill-rule:nonzero;stroke:none"
         d="m 1267.38,594.172 h -2.4 v -0.004 h 2.4 l 4.71,-8.469 h 4.04 v 0 h -4.04 l -4.71,8.473" /><path
         id="path88"
         style="fill:#d01d29;fill-opacity:1;fill-rule:nonzero;stroke:none"
         d="m 1270.94,594.359 v 0 c 2.86,0.231 5.09,1.637 5.09,5.258 v 0 c 0,-3.621 -2.23,-5.027 -5.09,-5.258" /><path
         id="path90"
         style="fill:#d01d29;fill-opacity:1;fill-rule:nonzero;stroke:none"
         d="m 1264.98,602.387 h 3.23 c 1.54,0 3.43,-0.25 3.87,-1.727 0.06,-0.215 0.1,-0.449 0.1,-0.715 0,-2.394 -1.62,-2.722 -3.78,-2.722 h -3.42 z m 0,-8.219 v 0.004 h 2.4 l 4.71,-8.473 h 4.04 l -5.19,8.66 c 0,0 0,0 0,0 v 0 c 2.86,0.231 5.09,1.637 5.09,5.258 0,4.278 -2.73,5.824 -7.58,5.824 h -7.29 v -19.742 h 3.82 v 8.469" /><path
         id="path92"
         style="fill:#d01d29;fill-opacity:1;fill-rule:nonzero;stroke:none"
         d="m 1272.08,600.66 c -0.44,1.477 -2.33,1.727 -3.87,1.727 1.54,0 3.43,-0.25 3.87,-1.727" /><path
         id="path94"
         style="fill:#d01d29;fill-opacity:1;fill-rule:nonzero;stroke:none"
         d="m 486.82,448.117 10.317,63.102 5.133,31.383 -369.786,-233.735 -11.925,-64.476 28.964,17.793 104.063,63.918 c -5.012,-21.918 -9.195,-43.317 -12.875,-64.528 -6.856,-39.527 -11.934,-78.386 -17.18,-118.629 l -7.363,-55.4059 c 0,-0.0039 1.512,-0.4727 4.051,-1.2618 13.652,-4.2421 57.183,-17.7343 57.183,-17.7343 l 0.586,3.914 c 13.192,88.598 25.68,168.637 44.946,250.93 l 0.699,2.988 -42.172,13.926 205.359,107.816" /><path
         id="path96"
         style="fill:none;stroke:#f2f2f2;stroke-width:2.16000009;stroke-linecap:butt;stroke-linejoin:miter;stroke-miterlimit:22.92560005;stroke-dasharray:none;stroke-opacity:1"
         d="M 3.47266,693.531 H 1488.48 V 6.56641 H 3.47266 Z" /></g></g></svg>